<svg xmlns="http://www.w3.org/2000/svg" xmlns:xlink="http://www.w3.org/1999/xlink" x="0px" y="0px" viewBox="0 0 750 500" style="enable-background:new 0 0 750 500;" xml:space="preserve">
<g id="Background_Complete">
	<g>
		<g>
			<g>
				<g>
					<rect x="96.5" y="71.59" style="fill:#CECBFF;" width="91.74" height="132.98"></rect>
				</g>
			</g>
		</g>
		<g>
			<g>
				<g>
					<rect x="91.9" y="71.59" style="fill:#E7E5FF;" width="91.74" height="132.98"></rect>
				</g>
			</g>
		</g>
		<g>
			<g>
				<g>
					<g>
						<rect x="103.3" y="85.99" style="fill:#FFFFFF;" width="68.95" height="104.17"></rect>
					</g>
				</g>
			</g>
			<g>
				<g>
					<g>
						<g>
							<path style="fill:#CECBFF;" d="M172.25,190.17c0,0-0.01-0.18-0.01-0.51c0-0.34-0.01-0.83-0.01-1.48         c-0.01-1.31-0.02-3.23-0.03-5.71c-0.01-4.99-0.04-12.27-0.06-21.46c-0.03-18.37-0.07-44.38-0.11-75.01l0.23,0.23         c-21.06,0.01-44.41,0.01-68.94,0.02h-0.01l0.25-0.25c-0.02,39.3-0.04,75.53-0.05,104.17l-0.2-0.2         c21,0.04,38.21,0.08,50.18,0.1c5.99,0.02,10.67,0.04,13.86,0.05c1.59,0.01,2.8,0.02,3.64,0.02         C171.82,190.15,172.25,190.17,172.25,190.17s-0.41,0.01-1.22,0.02c-0.83,0.01-2.03,0.01-3.6,0.02         c-3.19,0.01-7.85,0.03-13.82,0.05c-12.01,0.02-29.26,0.06-50.31,0.1l-0.2,0l0-0.2c-0.01-28.64-0.03-64.88-0.05-104.17l0-0.25         h0.25h0.01c24.53,0.01,47.87,0.01,68.94,0.02h0.23l0,0.23c-0.05,30.69-0.09,56.76-0.11,75.16         c-0.03,9.17-0.05,16.43-0.06,21.41c-0.01,2.47-0.02,4.37-0.03,5.67c-0.01,0.63-0.01,1.11-0.01,1.45         C172.26,190.01,172.25,190.17,172.25,190.17z"></path>
						</g>
					</g>
				</g>
			</g>
		</g>
		<g>
			<g>
				<g>
					<g>
						<path style="fill:none;stroke:#FBFBFB;stroke-width:0.25;stroke-miterlimit:10;" d="M169.05,86.69"></path>
					</g>
				</g>
			</g>
		</g>
		<g>
			<g>
				<g>
					<g>
						<path style="fill:#CECBFF;" d="M183.91,71.59c0.05,0.04-0.57,0.95-1.64,2.38c-1.07,1.43-2.58,3.36-4.3,5.46        c-1.73,2.1-3.34,3.95-4.53,5.27s-1.97,2.1-2.02,2.06c-0.05-0.05,0.63-0.91,1.75-2.29c1.23-1.49,2.74-3.33,4.42-5.36        c1.67-2.03,3.18-3.87,4.41-5.36C183.13,72.38,183.85,71.55,183.91,71.59z"></path>
					</g>
				</g>
			</g>
		</g>
		<g>
			<g>
				<g>
					<g>
						<path style="fill:#FFFFFF;" d="M172.6,189.83c3.42,5.45,7.47,10.5,12.03,15.04"></path>
					</g>
				</g>
			</g>
			<g>
				<g>
					<g>
						<g>
							<path style="fill:#CECBFF;" d="M184.63,204.87c-0.05,0.05-0.86-0.66-2.1-1.91c-1.23-1.24-2.87-3.03-4.54-5.12         c-1.67-2.09-3.05-4.08-3.99-5.55c-0.94-1.48-1.45-2.43-1.4-2.46c0.06-0.04,0.68,0.85,1.69,2.27         c1.01,1.42,2.43,3.36,4.09,5.44c1.66,2.07,3.24,3.89,4.4,5.19C183.95,204.02,184.68,204.82,184.63,204.87z"></path>
						</g>
					</g>
				</g>
			</g>
		</g>
		<g>
			<g>
				<g>
					<g>
						<path style="fill:#FFFFFF;" d="M91.89,204.46c4.01-4.94,8.01-9.88,12.02-14.83"></path>
					</g>
				</g>
			</g>
			<g>
				<g>
					<g>
						<g>
							<path style="fill:#CECBFF;" d="M103.91,189.64c0.11,0.09-2.5,3.48-5.81,7.57c-3.32,4.1-6.1,7.34-6.2,7.26         c-0.11-0.09,2.5-3.48,5.82-7.57C101.02,192.8,103.8,189.55,103.91,189.64z"></path>
						</g>
					</g>
				</g>
			</g>
		</g>
		<g>
			<g>
				<g>
					<g>
						<path style="fill:#CECBFF;" d="M91.9,71.59c0.11-0.09,2.72,3.04,5.83,6.97c3.11,3.94,5.55,7.2,5.44,7.28        c-0.11,0.09-2.72-3.04-5.83-6.97C94.23,74.94,91.8,71.68,91.9,71.59z"></path>
					</g>
				</g>
			</g>
		</g>
		<g>
			<g>
				<g>
					<rect x="127.68" y="107.14" style="fill:#CECBFF;" width="23.09" height="65.55"></rect>
				</g>
			</g>
		</g>
	</g>
	<g>
		<g>
			<g>
				<g>
					<polygon style="fill:#E0E0E0;" points="311.93,52.21 311.93,110.45 228.29,110.45 225.28,52.62      "></polygon>
				</g>
			</g>
		</g>
		<g>
			<g>
				<g>
					
						<rect x="238.25" y="39.65" transform="matrix(6.123234e-17 -1 1 6.123234e-17 185.6246 348.57)" style="fill:#E7E5FF;" width="57.7" height="83.64"></rect>
				</g>
			</g>
			<g>
				<g>
					<path style="fill:#CECBFF;" d="M309.31,110.72h-84.43v-58.5h84.43V110.72z M225.68,109.93h82.84V53.02h-82.84V109.93z"></path>
				</g>
			</g>
		</g>
		<g>
			<g>
				<g>
					<g>
						<rect x="234.34" y="59.79" style="fill:#FFFFFF;" width="65.52" height="43.36"></rect>
					</g>
				</g>
			</g>
			<g>
				<g>
					<g>
						<g>
							<path style="fill:#CECBFF;" d="M299.86,59.79c0,0-0.11,0.01-0.32,0.01c-0.22,0-0.53,0.01-0.93,0.01         c-0.83,0.01-2.04,0.01-3.6,0.02c-3.15,0.01-7.72,0.03-13.5,0.05c-11.55,0.02-27.91,0.06-47.17,0.09l0.19-0.19         c0.01,13.25,0.01,27.93,0.02,43.36v0.01l-0.21-0.21c24.72,0.02,47.5,0.03,65.52,0.04l-0.16,0.16         c0.04-13.2,0.07-24.02,0.09-31.55c0.02-3.77,0.03-6.71,0.04-8.72c0.01-1,0.01-1.76,0.02-2.29         C299.85,60.07,299.86,59.79,299.86,59.79s0.01,0.25,0.02,0.76c0,0.52,0.01,1.28,0.02,2.26c0.01,2.01,0.02,4.94,0.04,8.69         c0.02,7.56,0.05,18.41,0.09,31.65l0,0.16l-0.17,0c-18.02,0.01-40.8,0.03-65.52,0.04l-0.21,0v-0.21v-0.01         c0.01-15.43,0.01-30.11,0.02-43.36l0-0.19l0.19,0c19.31,0.04,35.7,0.07,47.29,0.09c5.76,0.02,10.32,0.04,13.46,0.05         c1.55,0.01,2.74,0.02,3.56,0.02c0.39,0,0.69,0.01,0.91,0.01C299.76,59.78,299.86,59.79,299.86,59.79z"></path>
						</g>
					</g>
				</g>
			</g>
		</g>
		<g>
			<g>
				<g>
					<g>
						<path style="fill:#CECBFF;" d="M225.28,52.46c0.03-0.04,0.58,0.31,1.44,0.93c0.86,0.62,2.02,1.49,3.28,2.5        c1.26,1.01,2.36,1.96,3.14,2.67c0.78,0.71,1.23,1.18,1.2,1.23c-0.08,0.09-2.09-1.57-4.6-3.58        C227.22,54.21,225.21,52.55,225.28,52.46z"></path>
					</g>
				</g>
			</g>
		</g>
		<g>
			<g>
				<g>
					<g>
						<path style="fill:#CECBFF;" d="M308.92,52.62c0.07,0.09-1.9,1.77-4.4,3.75c-2.5,1.98-4.59,3.51-4.66,3.42        c-0.07-0.09,1.9-1.77,4.4-3.75C306.76,54.06,308.85,52.53,308.92,52.62z"></path>
					</g>
				</g>
			</g>
		</g>
		<g>
			<g>
				<g>
					<g>
						<path style="fill:#FFFFFF;" d="M308.85,110.33c-3.11-2.52-6.22-5.04-9.33-7.56"></path>
					</g>
				</g>
			</g>
			<g>
				<g>
					<g>
						<g>
							<path style="fill:#CECBFF;" d="M299.52,102.77c0.07-0.09,2.22,1.53,4.79,3.62c2.58,2.09,4.6,3.85,4.53,3.94         c-0.07,0.09-2.22-1.53-4.79-3.62C301.48,104.63,299.45,102.86,299.52,102.77z"></path>
						</g>
					</g>
				</g>
			</g>
		</g>
		<g>
			<g>
				<g>
					<g>
						<path style="fill:#CECBFF;" d="M225.28,110.32c-0.07-0.09,1.88-1.75,4.35-3.71c2.48-1.96,4.54-3.47,4.61-3.38        s-1.88,1.75-4.35,3.71C227.41,108.9,225.35,110.41,225.28,110.32z"></path>
					</g>
				</g>
			</g>
		</g>
		<g>
			<g>
				<g>
					
						<rect x="260.99" y="59.95" transform="matrix(6.123234e-17 -1 1 6.123234e-17 187.6926 348.8148)" style="fill:#CECBFF;" width="14.52" height="41.23"></rect>
				</g>
			</g>
		</g>
	</g>
	<g>
		<g>
			<g>
				<path style="fill:#3F9D03;" d="M652.69,313.17c0,0-7.51-3.5-13.4,14.1c-5.89,17.6-7.64,27.51-7.64,27.51s-1.69,3.76-4.38,1.87      c-2.69-1.89-6.86-7.76-10.69-6.02c-3.97,1.81-4.65,6.64-2.84,13.33c1.81,6.69,5.24,21.48,5.54,22.82      c0.3,1.31-0.17,3.39-2.21,2.39c-2.04-0.99-14.44-11.24-18.95-5.07c-4.51,6.18,3.59,23.98,4.44,25.94      c0.85,1.96,0.58,2.9-0.32,3.55c-0.9,0.65-4.74-3.19-8.39-5.96c-3.65-2.77-8.36-5.34-10.67-1.56      c-2.3,3.78-1.12,17.87,15.55,38.55l8.35,9.08l12.13-2.51c25.63-6.95,34.87-17.66,35.22-22.07c0.36-4.41-4.97-5.1-9.55-5      c-4.58,0.1-9.94,0.95-10.29-0.1c-0.34-1.05-0.01-1.97,1.83-3.06c1.84-1.09,18.85-10.74,18.82-18.39      c-0.03-7.65-16.08-6.63-18.32-7.03c-2.23-0.39-1.39-2.35-0.38-3.23c1.03-0.9,12.49-10.87,17.88-15.22      c5.39-4.35,7.68-8.66,5.53-12.46c-2.08-3.66-8.9-1.36-12.19-1.41c-3.29-0.05-2.45-4.08-2.45-4.08s4.4-9.04,9.97-26.75      c5.57-17.71-2.78-19.29-2.78-19.29"></path>
			</g>
		</g>
		<g>
			<g>
				<g>
					<path style="fill:#E0E0E0;" d="M605.48,456.19c4.14-12.99,11.89-35.95,18.44-55.7c6.55-19.74,12.46-37.62,16.66-50.59       c2.09-6.47,3.79-11.72,4.97-15.36c0.58-1.8,1.04-3.21,1.35-4.18c0.16-0.46,0.28-0.82,0.36-1.08c0.08-0.24,0.14-0.37,0.14-0.37       s-0.03,0.13-0.1,0.38c-0.08,0.26-0.19,0.62-0.32,1.09c-0.3,0.98-0.73,2.39-1.28,4.2c-1.12,3.64-2.78,8.91-4.85,15.4       c-4.14,12.99-10.01,30.88-16.56,50.62c-6.55,19.75-14.34,42.69-18.54,55.66"></path>
				</g>
			</g>
		</g>
		<g>
			<g>
				<g>
					<path style="fill:#E0E0E0;" d="M622.09,359.08c0.02-0.01,0.18,0.27,0.43,0.78c0.26,0.51,0.61,1.26,1.03,2.2       c0.84,1.87,1.94,4.48,3.11,7.38c1.14,2.87,2.16,5.46,2.95,7.44c0.36,0.89,0.66,1.64,0.91,2.25c0.22,0.53,0.33,0.83,0.3,0.84       c-0.02,0.01-0.18-0.27-0.44-0.78c-0.26-0.51-0.61-1.27-1.02-2.2c-0.83-1.88-1.89-4.5-3.05-7.4c-1.16-2.86-2.2-5.44-3-7.41       c-0.36-0.89-0.67-1.64-0.92-2.24C622.17,359.39,622.06,359.09,622.09,359.08z"></path>
				</g>
			</g>
		</g>
		<g>
			<g>
				<g>
					<path style="fill:#E0E0E0;" d="M631.97,380.01c-0.04-0.1,5.24-2.6,11.79-5.59c6.56-2.99,11.91-5.34,11.95-5.25       c0.04,0.1-5.23,2.6-11.79,5.6C637.36,377.76,632.01,380.11,631.97,380.01z"></path>
				</g>
			</g>
		</g>
		<g>
			<g>
				<g>
					<path style="fill:#E0E0E0;" d="M620.54,409.88c0-0.03,0.32-0.09,0.89-0.18c0.66-0.1,1.48-0.22,2.45-0.36       c2.07-0.3,4.92-0.74,8.05-1.33c3.13-0.59,5.95-1.22,7.98-1.69c0.96-0.22,1.77-0.41,2.41-0.56c0.57-0.13,0.89-0.19,0.9-0.16       c0.01,0.03-0.3,0.13-0.86,0.31c-0.56,0.17-1.37,0.41-2.38,0.68c-2.02,0.54-4.84,1.21-7.98,1.8c-3.14,0.59-6.01,0.99-8.09,1.22       c-1.04,0.11-1.88,0.2-2.47,0.24C620.87,409.89,620.55,409.9,620.54,409.88z"></path>
				</g>
			</g>
		</g>
		<g>
			<g>
				<g>
					<path style="fill:#E0E0E0;" d="M607.44,392.91c0.02-0.02,0.23,0.2,0.58,0.61c0.4,0.48,0.89,1.06,1.47,1.75       c1.23,1.49,2.9,3.57,4.73,5.88c1.83,2.31,3.47,4.41,4.65,5.95c0.54,0.72,1,1.33,1.37,1.83c0.32,0.44,0.48,0.69,0.46,0.7       c-0.02,0.02-0.23-0.2-0.58-0.61c-0.4-0.48-0.89-1.06-1.47-1.75c-1.23-1.49-2.9-3.57-4.73-5.88c-1.83-2.31-3.47-4.41-4.65-5.95       c-0.54-0.72-1-1.33-1.37-1.83C607.59,393.18,607.42,392.93,607.44,392.91z"></path>
				</g>
			</g>
		</g>
		<g>
			<g>
				<g>
					<path style="fill:#E0E0E0;" d="M594.01,418c0.02-0.02,0.28,0.27,0.73,0.79c0.49,0.58,1.13,1.34,1.89,2.24       c1.58,1.9,3.75,4.55,6.13,7.49c2.38,2.94,4.51,5.61,6.04,7.56c0.72,0.94,1.33,1.71,1.8,2.32c0.42,0.55,0.64,0.87,0.62,0.88       c-0.02,0.02-0.28-0.27-0.73-0.79c-0.49-0.58-1.13-1.34-1.89-2.24c-1.58-1.9-3.75-4.55-6.13-7.49       c-2.38-2.94-4.51-5.61-6.04-7.56c-0.72-0.94-1.33-1.71-1.8-2.32C594.21,418.33,593.99,418.02,594.01,418z"></path>
				</g>
			</g>
		</g>
		<g>
			<g>
				<g>
					<path style="fill:#E0E0E0;" d="M610.95,438.65c0-0.03,0.4-0.11,1.13-0.25c0.8-0.15,1.84-0.34,3.09-0.57       c2.61-0.48,6.21-1.16,10.16-2.02c3.95-0.85,7.51-1.72,10.08-2.37c1.24-0.31,2.26-0.57,3.05-0.76c0.72-0.18,1.12-0.26,1.13-0.24       c0.01,0.03-0.38,0.16-1.09,0.38c-0.71,0.22-1.74,0.53-3.02,0.88c-2.56,0.71-6.11,1.62-10.07,2.48       c-3.96,0.86-7.57,1.5-10.19,1.91c-1.31,0.2-2.37,0.36-3.11,0.45C611.36,438.64,610.95,438.68,610.95,438.65z"></path>
				</g>
			</g>
		</g>
	</g>
</g>
<g id="Background_Simple" style="display:none;">
	<path style="display:inline;fill:#F5F5F5;" d="M651.72,163.5c-12.4-46.28-49.24-84.79-94.1-97.12s-96.05,2.48-127.76,37.82   c-15.49,17.26-26.65,38.99-45.15,52.71c-22.52,16.7-52.09,18.69-79.66,16.93c-27.57-1.76-55.43-6.62-82.61-1.36   c-43.55,8.43-81.01,44.76-91.97,89.2c-10.95,44.44,5.18,94.63,39.62,123.21l38.07,31.5c34.91,25.35,167.16,35.93,249.51,29.66   c58.29-4.44,98.11-26.81,133.21-61.73c27.16-27.02,43.26-63.87,54.02-101.19C656.1,244.29,662.15,202.44,651.72,163.5z"></path>
</g>
<g id="Floor">
	<g>
		<g>
			<path style="fill:#263238;" d="M675.04,455.83c0,0.14-137.39,0.26-306.83,0.26c-169.5,0-306.86-0.12-306.86-0.26     c0-0.14,137.36-0.26,306.86-0.26C537.65,455.57,675.04,455.69,675.04,455.83z"></path>
		</g>
	</g>
</g>
<g id="Stopwatch">
	<g>
		<g>
			<g>
				<g>
					
						<rect x="482.04" y="108.34" transform="matrix(0.7582 -0.652 0.652 0.7582 41.0684 346.9512)" style="fill:#263238;" width="12.52" height="19.54"></rect>
				</g>
				<g>
					<path style="fill:#455A64;" d="M495.58,106.67l-19.55,16.82l-13.73-15.97c5.39-7.57,11.84-13.3,19.55-16.82L495.58,106.67z"></path>
				</g>
			</g>
			<g>
				<g>
					<path style="fill:#263238;" d="M479.3,120.67c-0.11,0.09-3.42-3.54-7.4-8.11c-3.98-4.57-7.11-8.36-7.01-8.45       c0.11-0.09,3.42,3.54,7.4,8.11C476.27,116.79,479.41,120.58,479.3,120.67z"></path>
				</g>
			</g>
			<g>
				<g>
					<path style="fill:#263238;" d="M483.02,117.47c-0.06,0.05-0.9-0.89-2.22-2.44c-1.32-1.55-3.12-3.7-5.09-6.1       c-1.91-2.35-3.64-4.47-5.01-6.16c-0.57-0.71-1.07-1.34-1.51-1.88c-0.36-0.45-0.54-0.67-0.54-0.69c0.19-0.19,3.53,3.61,7.47,8.4       c1.97,2.4,3.72,4.59,4.97,6.2C482.34,116.4,483.08,117.42,483.02,117.47z"></path>
				</g>
			</g>
			<g>
				<g>
					<path style="fill:#263238;" d="M487.98,113.2c-0.06,0.05-0.9-0.9-2.23-2.47c-1.33-1.57-3.14-3.75-5.11-6.19       c-1.91-2.38-3.64-4.54-5.02-6.26c-0.57-0.73-1.07-1.37-1.5-1.92c-0.36-0.47-0.51-0.68-0.52-0.73c0.06-0.08,0.97,0.86,2.3,2.41       c1.35,1.55,3.16,3.73,5.14,6.17c1.98,2.43,3.74,4.66,4.99,6.28C487.29,112.12,488.04,113.15,487.98,113.2z"></path>
				</g>
			</g>
			<g>
				<g>
					<path style="fill:#263238;" d="M492.51,109.2c-0.11,0.09-3.4-3.58-7.34-8.2c-3.95-4.63-7.06-8.45-6.95-8.54s3.4,3.58,7.34,8.21       C489.51,105.28,492.62,109.11,492.51,109.2z"></path>
				</g>
			</g>
		</g>
		<g>
			<g>
				<g>
					
						<rect x="637.26" y="110.4" transform="matrix(0.6909 0.723 -0.723 0.6909 285.8137 -428.1059)" style="fill:#263238;" width="12.52" height="19.54"></rect>
				</g>
				<g>
					<path style="fill:#455A64;" d="M655.33,126.84l-17.82-18.65l15.23-14.55c7.85,4.99,13.9,11.13,17.82,18.65L655.33,126.84z"></path>
				</g>
			</g>
			<g>
				<g>
					<path style="fill:#263238;" d="M640.49,111.32c-0.1-0.1,3.35-3.6,7.71-7.81c4.36-4.21,7.97-7.54,8.07-7.44       c0.1,0.1-3.35,3.6-7.71,7.81C644.21,108.09,640.59,111.42,640.49,111.32z"></path>
				</g>
			</g>
			<g>
				<g>
					<path style="fill:#263238;" d="M643.89,114.87c-0.05-0.05,0.84-0.94,2.32-2.34c1.47-1.4,3.53-3.31,5.82-5.4       c2.24-2.03,4.27-3.86,5.89-5.33c0.68-0.61,1.28-1.14,1.79-1.6c0.43-0.38,0.64-0.58,0.67-0.58c0.2,0.18-3.42,3.71-8,7.9       c-2.29,2.09-4.39,3.96-5.93,5.29C644.91,114.13,643.94,114.92,643.89,114.87z"></path>
				</g>
			</g>
			<g>
				<g>
					<path style="fill:#263238;" d="M648.41,119.6c-0.05-0.05,0.85-0.95,2.35-2.36c1.5-1.41,3.59-3.33,5.91-5.43       c2.28-2.04,4.34-3.88,5.99-5.34c0.7-0.61,1.31-1.14,1.84-1.59c0.45-0.38,0.65-0.55,0.7-0.56c0.09,0.06-0.81,1.01-2.28,2.43       c-1.48,1.43-3.56,3.36-5.89,5.46c-2.33,2.1-4.45,3.98-6.01,5.32C649.45,118.85,648.46,119.65,648.41,119.6z"></path>
				</g>
			</g>
			<g>
				<g>
					<path style="fill:#263238;" d="M652.64,123.91c-0.1-0.1,3.4-3.58,7.81-7.76c4.41-4.18,8.07-7.49,8.17-7.39       c0.1,0.1-3.4,3.58-7.81,7.76C656.4,120.7,652.74,124.01,652.64,123.91z"></path>
				</g>
			</g>
		</g>
		<g>
			<g>
				<g>
					<rect x="560.26" y="74.72" style="fill:#263238;" width="14.82" height="23.13"></rect>
				</g>
				<g>
					<path style="fill:#0F4C81;" d="M583.03,81.64H552.5V56.71c10.69-2.63,20.89-2.79,30.53,0V81.64z"></path>
				</g>
			</g>
			<g>
				<g>
					<path style="fill:#263238;" d="M583.39,56.81c0.01,0.03-0.39,0.23-1.13,0.56c-0.73,0.34-1.83,0.75-3.22,1.18       c-1.38,0.44-3.06,0.85-4.95,1.17c-1.89,0.3-4,0.51-6.21,0.53c-2.22,0-4.32-0.19-6.22-0.47c-1.89-0.31-3.58-0.7-4.96-1.13       c-1.39-0.42-2.49-0.82-3.23-1.15c-0.74-0.32-1.15-0.51-1.13-0.55c0.04-0.09,1.68,0.6,4.46,1.35c1.38,0.38,3.06,0.73,4.93,1.01       c1.88,0.25,3.96,0.42,6.14,0.42c2.19-0.02,4.26-0.21,6.14-0.48c1.87-0.3,3.54-0.66,4.92-1.05       C581.71,57.43,583.35,56.72,583.39,56.81z"></path>
				</g>
			</g>
			<g>
				<g>
					<path style="fill:#263238;" d="M562.58,81.57c-0.14,0-0.26-4.79-0.26-10.69c0-5.9,0.12-10.69,0.26-10.69s0.26,4.79,0.26,10.69       C562.84,76.78,562.73,81.57,562.58,81.57z"></path>
				</g>
			</g>
			<g>
				<g>
					<path style="fill:#263238;" d="M568.39,81.71c-0.14,0-0.26-4.81-0.26-10.74c0-5.93,0.12-10.74,0.26-10.74       c0.14,0,0.26,4.81,0.26,10.74C568.65,76.9,568.54,81.71,568.39,81.71z"></path>
				</g>
			</g>
			<g>
				<g>
					<path style="fill:#263238;" d="M574.2,81.62c-0.14,0-0.26-4.81-0.26-10.74c0-5.93,0.12-10.74,0.26-10.74s0.26,4.81,0.26,10.74       C574.46,76.81,574.35,81.62,574.2,81.62z"></path>
				</g>
			</g>
			<g>
				<g>
					<path style="fill:#263238;" d="M579.04,81.62c-0.14,0-0.26-5.2-0.26-11.61c0-6.41,0.12-11.61,0.26-11.61s0.26,5.2,0.26,11.61       C579.3,76.42,579.18,81.62,579.04,81.62z"></path>
				</g>
			</g>
			<g>
				<g>
					<path style="fill:#263238;" d="M557.09,81.47c-0.14,0-0.26-5.2-0.26-11.61c0-6.41,0.12-11.61,0.26-11.61       c0.14,0,0.26,5.2,0.26,11.61C557.35,76.27,557.24,81.47,557.09,81.47z"></path>
				</g>
			</g>
		</g>
		<g>
			
				<ellipse transform="matrix(0.7071 -0.7071 0.7071 0.7071 25.3568 458.2836)" style="fill:#484574;" cx="565.88" cy="198.53" rx="107.83" ry="107.83"></ellipse>
		</g>
		<g>
			<g>
				<circle style="fill:#FAFAFA;" cx="565.88" cy="197.67" r="90.56"></circle>
			</g>
			<g>
				<g>
					<path style="fill:#263238;" d="M656.44,197.67c0,0-0.03-0.5-0.06-1.47c-0.06-0.97-0.02-2.42-0.19-4.3       c-0.23-3.78-0.86-9.35-2.58-16.34c-0.92-3.47-2.05-7.32-3.72-11.36c-1.64-4.05-3.65-8.37-6.3-12.74       c-5.24-8.74-12.75-17.89-22.98-25.69c-5.09-3.91-10.89-7.42-17.27-10.32c-6.38-2.9-13.35-5.22-20.78-6.56       c-7.42-1.37-15.28-1.91-23.3-1.28c-4.02,0.24-8.05,0.89-12.11,1.69c-4.04,0.87-8.08,2.03-12.08,3.44       c-15.94,5.77-31.08,16.55-41.99,31.5c-2.76,3.7-5.18,7.7-7.36,11.85c-1.11,2.07-2.06,4.23-3.03,6.39       c-0.87,2.2-1.77,4.4-2.49,6.67c-1.48,4.53-2.71,9.19-3.44,13.97c-0.75,4.78-1.15,9.64-1.18,14.53       c0.03,4.9,0.43,9.76,1.18,14.54c0.73,4.78,1.96,9.45,3.44,13.98c0.72,2.28,1.62,4.48,2.49,6.68c0.97,2.16,1.92,4.32,3.03,6.39       c2.18,4.15,4.6,8.15,7.36,11.86c10.91,14.95,26.06,25.73,42,31.5c4,1.42,8.03,2.58,12.08,3.45c4.05,0.8,8.09,1.46,12.11,1.69       c8.02,0.63,15.88,0.09,23.3-1.28c7.43-1.34,14.41-3.67,20.78-6.56c6.38-2.9,12.17-6.41,17.27-10.32       c10.23-7.8,17.74-16.95,22.98-25.69c2.65-4.37,4.67-8.69,6.3-12.74c1.67-4.05,2.79-7.89,3.71-11.36       c1.72-6.98,2.35-12.56,2.58-16.34c0.17-1.89,0.13-3.33,0.19-4.3C656.41,198.17,656.44,197.67,656.44,197.67s0.01,0.5-0.01,1.47       c-0.04,0.97,0.01,2.42-0.14,4.31c-0.19,3.78-0.79,9.37-2.49,16.38c-0.91,3.48-2.02,7.34-3.68,11.41       c-1.63,4.07-3.63,8.41-6.28,12.8c-5.23,8.78-12.74,17.98-23,25.83c-5.11,3.94-10.92,7.47-17.33,10.39       c-6.4,2.92-13.4,5.27-20.87,6.62c-7.45,1.39-15.35,1.94-23.41,1.32c-4.04-0.24-8.1-0.89-12.17-1.69       c-4.07-0.87-8.12-2.03-12.15-3.45c-16.03-5.79-31.27-16.62-42.25-31.65c-2.78-3.72-5.21-7.74-7.41-11.92       c-1.12-2.08-2.07-4.25-3.05-6.42c-0.88-2.21-1.78-4.43-2.51-6.71c-1.49-4.56-2.72-9.25-3.46-14.06       c-0.76-4.8-1.15-9.7-1.19-14.62c0.03-4.92,0.43-9.81,1.19-14.62c0.74-4.81,1.97-9.5,3.46-14.05c0.72-2.29,1.63-4.5,2.51-6.71       c0.98-2.17,1.93-4.34,3.05-6.42c2.2-4.18,4.63-8.2,7.41-11.92c10.98-15.03,26.21-25.86,42.24-31.65       c4.02-1.42,8.08-2.59,12.14-3.45c4.08-0.8,8.13-1.46,12.17-1.69c8.06-0.62,15.96-0.07,23.41,1.31       c7.47,1.35,14.47,3.7,20.87,6.62c6.41,2.92,12.22,6.46,17.33,10.39c10.26,7.85,17.78,17.05,23.01,25.83       c2.65,4.39,4.66,8.73,6.28,12.8c1.66,4.06,2.77,7.92,3.68,11.41c1.7,7.01,2.29,12.6,2.49,16.38c0.15,1.89,0.1,3.34,0.14,4.31       C656.44,197.18,656.44,197.67,656.44,197.67z"></path>
				</g>
			</g>
		</g>
		<g>
			<g>
				<path style="fill:none;stroke:#87A5C0;stroke-miterlimit:10;" d="M677.22,205.66"></path>
			</g>
		</g>
		<g>
			<g>
				<g>
					<path style="fill:#263238;" d="M643.15,194.39c-2.87,0.12-5.21,0.01-5.23-0.24c-0.01-0.25,2.31-0.59,5.18-0.76       c2.87-0.16,5.21-0.05,5.23,0.24C648.34,193.93,646.03,194.27,643.15,194.39z"></path>
				</g>
			</g>
			<g>
				<g>
					<path style="fill:#263238;" d="M641.22,215.24c-2.8-0.66-5.03-1.39-4.97-1.63c0.06-0.25,2.38,0.05,5.19,0.66       c2.81,0.61,5.03,1.34,4.97,1.63C646.35,216.19,644.02,215.89,641.22,215.24z"></path>
				</g>
			</g>
			<g>
				<g>
					<path style="fill:#263238;" d="M633.75,234.79c-2.52-1.39-4.47-2.69-4.35-2.91c0.12-0.22,2.28,0.69,4.82,2.03       c2.54,1.35,4.49,2.65,4.34,2.91C638.42,237.09,636.27,236.18,633.75,234.79z"></path>
				</g>
			</g>
			<g>
				<g>
					<path style="fill:#263238;" d="M621.3,251.63c-2.06-2.01-3.59-3.79-3.41-3.97c0.18-0.18,2.01,1.27,4.1,3.25       c2.09,1.98,3.62,3.75,3.41,3.97C625.19,255.09,623.35,253.64,621.3,251.63z"></path>
				</g>
			</g>
			<g>
				<g>
					<path style="fill:#263238;" d="M604.8,264.53c-1.45-2.49-2.44-4.61-2.22-4.74c0.22-0.13,1.6,1.76,3.08,4.23       c1.48,2.46,2.48,4.58,2.22,4.74C607.63,268.91,606.25,267.02,604.8,264.53z"></path>
				</g>
			</g>
			<g>
				<g>
					<path style="fill:#263238;" d="M585.45,272.52c-0.72-2.79-1.11-5.1-0.86-5.16c0.25-0.07,1.06,2.13,1.83,4.9       c0.76,2.77,1.15,5.08,0.86,5.16C586.99,277.5,586.17,275.3,585.45,272.52z"></path>
				</g>
			</g>
			<g>
				<g>
					<path style="fill:#263238;" d="M564.66,275.02c0.05-2.88,0.29-5.21,0.54-5.2c0.25,0,0.46,2.34,0.46,5.21       c0,2.88-0.25,5.21-0.54,5.2C564.82,280.22,564.61,277.89,564.66,275.02z"></path>
				</g>
			</g>
			<g>
				<g>
					<path style="fill:#263238;" d="M543.95,271.87c0.82-2.76,1.68-4.94,1.93-4.87c0.25,0.07-0.18,2.37-0.96,5.14       c-0.78,2.77-1.64,4.95-1.93,4.86C542.7,276.93,543.14,274.63,543.95,271.87z"></path>
				</g>
			</g>
			<g>
				<g>
					<path style="fill:#263238;" d="M524.87,263.26c1.53-2.44,2.95-4.3,3.16-4.17c0.22,0.13-0.82,2.23-2.31,4.69       c-1.49,2.46-2.91,4.32-3.16,4.17C522.3,267.8,523.34,265.7,524.87,263.26z"></path>
				</g>
			</g>
			<g>
				<g>
					<path style="fill:#263238;" d="M508.78,249.86c2.12-1.94,3.99-3.36,4.16-3.17c0.17,0.19-1.39,1.94-3.48,3.91       c-2.09,1.97-3.96,3.39-4.16,3.17C505.1,253.55,506.66,251.8,508.78,249.86z"></path>
				</g>
			</g>
			<g>
				<g>
					<path style="fill:#263238;" d="M496.86,232.64c2.57-1.3,4.74-2.17,4.86-1.94c0.12,0.23-1.85,1.49-4.4,2.83       c-2.55,1.34-4.72,2.21-4.86,1.94C492.33,235.21,494.3,233.94,496.86,232.64z"></path>
				</g>
			</g>
			<g>
				<g>
					<path style="fill:#263238;" d="M490.02,212.86c2.82-0.56,5.15-0.81,5.2-0.56s-2.19,0.94-5,1.54c-2.81,0.6-5.14,0.85-5.2,0.56       C484.96,214.11,487.2,213.42,490.02,212.86z"></path>
				</g>
			</g>
			<g>
				<g>
					<path style="fill:#263238;" d="M488.73,191.96c2.87,0.21,5.18,0.59,5.16,0.84c-0.02,0.25-2.36,0.32-5.23,0.15       c-2.87-0.17-5.18-0.55-5.16-0.84C483.52,191.81,485.86,191.74,488.73,191.96z"></path>
				</g>
			</g>
			<g>
				<g>
					<path style="fill:#263238;" d="M493.08,171.47c2.71,0.98,4.83,1.97,4.74,2.21c-0.08,0.24-2.36-0.33-5.08-1.26       c-2.72-0.94-4.84-1.92-4.74-2.2C488.1,169.93,490.38,170.49,493.08,171.47z"></path>
				</g>
			</g>
			<g>
				<g>
					<path style="fill:#263238;" d="M502.79,152.92c2.34,1.67,4.12,3.19,3.98,3.4c-0.15,0.21-2.18-0.95-4.55-2.58       c-2.37-1.63-4.15-3.15-3.98-3.4C498.41,150.1,500.44,151.25,502.79,152.92z"></path>
				</g>
			</g>
			<g>
				<g>
					<path style="fill:#263238;" d="M517.1,137.64c1.81,2.23,3.12,4.17,2.93,4.34c-0.2,0.16-1.85-1.49-3.7-3.7       c-1.85-2.2-3.16-4.15-2.93-4.34S515.29,135.41,517.1,137.64z"></path>
				</g>
			</g>
			<g>
				<g>
					<path style="fill:#263238;" d="M534.98,126.74c1.15,2.64,1.89,4.86,1.65,4.96c-0.23,0.1-1.38-1.94-2.57-4.56       c-1.19-2.62-1.93-4.84-1.65-4.96C532.68,122.07,533.83,124.11,534.98,126.74z"></path>
				</g>
			</g>
			<g>
				<g>
					<path style="fill:#263238;" d="M555.14,121.07c0.39,2.85,0.51,5.19,0.26,5.23c-0.25,0.04-0.81-2.24-1.25-5.08       c-0.44-2.84-0.55-5.18-0.26-5.22C554.19,115.95,554.75,118.22,555.14,121.07z"></path>
				</g>
			</g>
			<g>
				<g>
					<path style="fill:#263238;" d="M576.08,120.99c-0.38,2.85-0.89,5.14-1.14,5.11c-0.25-0.03-0.18-2.37,0.15-5.23       c0.34-2.86,0.85-5.14,1.14-5.1C576.53,115.8,576.46,118.14,576.08,120.99z"></path>
				</g>
			</g>
			<g>
				<g>
					<path style="fill:#263238;" d="M596.27,126.53c-1.14,2.64-2.25,4.71-2.48,4.61c-0.23-0.1,0.46-2.33,1.56-4.99       c1.09-2.66,2.2-4.72,2.48-4.61C598.11,121.65,597.41,123.89,596.27,126.53z"></path>
				</g>
			</g>
			<g>
				<g>
					<path style="fill:#263238;" d="M614.23,137.3c-1.8,2.24-3.42,3.93-3.62,3.78c-0.2-0.16,1.07-2.13,2.84-4.4       c1.77-2.27,3.39-3.96,3.62-3.77C617.3,133.09,616.03,135.06,614.23,137.3z"></path>
				</g>
			</g>
			<g>
				<g>
					<path style="fill:#263238;" d="M628.66,152.48c-2.34,1.68-4.35,2.88-4.5,2.67c-0.15-0.21,1.6-1.76,3.91-3.48       c2.31-1.71,4.32-2.91,4.5-2.67C632.74,149.24,630.99,150.8,628.66,152.48z"></path>
				</g>
			</g>
			<g>
				<g>
					<path style="fill:#263238;" d="M638.49,170.97c-2.7,0.99-4.96,1.6-5.05,1.36c-0.09-0.24,2.02-1.27,4.7-2.3       c2.68-1.03,4.95-1.64,5.05-1.36C643.29,168.95,641.19,169.98,638.49,170.97z"></path>
				</g>
			</g>
			<g>
				<g>
					<path style="fill:#263238;" d="M642.97,191.42c-2.87,0.23-5.21,0.21-5.23-0.05c-0.02-0.25,2.28-0.68,5.15-0.95       c2.86-0.27,5.2-0.25,5.23,0.05C648.14,190.77,645.84,191.19,642.97,191.42z"></path>
				</g>
			</g>
		</g>
		<g>
			<g>
				<path style="fill:#FFFFFF;" d="M530.71,99.7c0,0.01-0.1,0.06-0.31,0.14c-0.23,0.09-0.54,0.22-0.92,0.37      c-0.8,0.34-2.02,0.75-3.54,1.42c-3.06,1.26-7.41,3.28-12.52,6.25c-2.56,1.48-5.28,3.25-8.12,5.24c-2.8,2.05-5.76,4.31-8.67,6.92      c-5.86,5.17-11.68,11.56-16.8,18.99c-5.06,7.47-8.91,15.21-11.59,22.55c-1.38,3.66-2.4,7.23-3.3,10.59      c-0.82,3.38-1.49,6.55-1.93,9.47c-0.91,5.84-1.21,10.63-1.27,13.94c-0.08,1.65-0.01,2.94-0.04,3.81      c-0.01,0.41-0.01,0.74-0.01,0.99c-0.01,0.22-0.01,0.34-0.02,0.34c-0.01,0-0.02-0.11-0.03-0.34c-0.01-0.25-0.02-0.58-0.04-0.99      c-0.01-0.87-0.11-2.16-0.06-3.82c0-3.31,0.25-8.12,1.11-13.99c0.42-2.94,1.07-6.12,1.88-9.52c0.88-3.38,1.89-6.97,3.26-10.65      c2.68-7.38,6.53-15.17,11.62-22.68c5.14-7.46,11.01-13.88,16.91-19.05c2.93-2.61,5.91-4.86,8.74-6.91      c2.87-1.99,5.6-3.75,8.19-5.21c5.16-2.94,9.54-4.92,12.63-6.12c1.53-0.65,2.76-1.02,3.58-1.33c0.39-0.13,0.7-0.24,0.94-0.32      C530.6,99.72,530.71,99.69,530.71,99.7z"></path>
			</g>
		</g>
		<g>
			<g>
				<path style="fill:#FFFFFF;" d="M560.81,93.86c0,0.07-1.19,0.21-3.12,0.41c-1.93,0.2-4.6,0.49-7.53,0.87      c-2.94,0.38-5.59,0.78-7.51,1.08c-1.92,0.29-3.11,0.47-3.12,0.4c-0.01-0.07,1.15-0.37,3.06-0.76c1.91-0.39,4.56-0.85,7.51-1.23      c2.95-0.38,5.63-0.61,7.57-0.72C559.6,93.79,560.8,93.79,560.81,93.86z"></path>
			</g>
		</g>
		<g style="opacity:0.4;">
			<path d="M493.5,252.11c0,0,46.93,74.06,119.73,36.13c75.99-39.59,34.01-130.36,34.01-130.36s35.76,72.34-38.32,119.5     c-18.45,11.75-38.54,11.76-53.86,10.22C515.9,283.67,493.5,252.11,493.5,252.11z"></path>
		</g>
		<g>
			<path style="fill:#E0E0E0;" d="M591.12,149.54c0.45,13.28,0.05,26.58-1.21,39.81c-0.45,4.78-1.04,9.63-2.85,14.08     c-1.81,4.45-5.01,8.53-9.44,10.41c-4.42,1.88-10.12,1.1-13.21-2.58L591.12,149.54z"></path>
		</g>
		<g>
			<g>
				<g>
					<polygon style="fill:#484574;" points="563.91,190.53 596.82,135.11 576.96,197.67 566.81,200.71      "></polygon>
				</g>
				<g style="opacity:0.4;">
					<polygon points="596.82,135.11 572.41,191.74 576.96,197.67      "></polygon>
				</g>
			</g>
			<g>
				<g>
					<g>
						<circle style="fill:#FAFAFA;" cx="566.81" cy="200.71" r="10.59"></circle>
					</g>
					<g>
						<g>
							<path style="fill:#263238;" d="M577.4,200.71c-0.07,0.01-0.01-0.94-0.43-2.56c-0.41-1.59-1.48-3.91-3.87-5.71         c-1.18-0.88-2.67-1.62-4.38-1.92c-1.7-0.29-3.62-0.23-5.44,0.47c-0.92,0.32-1.8,0.8-2.62,1.41c-0.82,0.6-1.57,1.34-2.18,2.2         c-1.27,1.69-1.99,3.87-2.01,6.11c0.02,2.24,0.74,4.42,2.01,6.11c0.61,0.86,1.36,1.6,2.18,2.2c0.81,0.61,1.7,1.09,2.62,1.41         c1.82,0.7,3.74,0.76,5.44,0.47c1.71-0.3,3.2-1.04,4.38-1.92c2.39-1.8,3.45-4.13,3.87-5.71         C577.39,201.66,577.33,200.71,577.4,200.71c0,0,0.13,0.95-0.23,2.61c-0.36,1.63-1.4,4.05-3.84,5.96         c-1.21,0.93-2.75,1.72-4.53,2.05c-1.77,0.32-3.77,0.27-5.69-0.44c-0.96-0.33-1.89-0.83-2.75-1.47         c-0.86-0.62-1.65-1.4-2.3-2.3c-1.34-1.77-2.1-4.06-2.12-6.41c0.02-2.35,0.78-4.64,2.12-6.41c0.65-0.9,1.43-1.67,2.3-2.3         c0.85-0.63,1.78-1.14,2.75-1.47c1.91-0.72,3.92-0.76,5.68-0.44c1.78,0.33,3.32,1.12,4.53,2.05c2.44,1.9,3.48,4.32,3.84,5.96         C577.53,199.77,577.4,200.71,577.4,200.71z"></path>
						</g>
					</g>
				</g>
				<g>
					<g>
						
							<ellipse transform="matrix(0.1981 -0.9802 0.9802 0.1981 257.7896 716.5275)" style="fill:#484574;" cx="566.81" cy="200.71" rx="7.88" ry="7.88"></ellipse>
					</g>
				</g>
			</g>
		</g>
	</g>
</g>
<g id="Calendar">
	<g>
		<g>
			<g>
				<polygon style="fill:#E0E0E0;" points="483.32,454.89 535.42,454.89 511.13,245.55     "></polygon>
			</g>
			<g>
				<polygon style="fill:#FAFAFA;" points="226.96,245.55 193.04,457.36 482.49,461.13 511.13,245.55     "></polygon>
			</g>
			<g>
				<polygon style="fill:#E7E5FF;" points="498.24,342.58 211.42,342.58 217.66,303.58 503.42,303.58     "></polygon>
				<path style="fill:#263238;" d="M498.26,342.61H211.39l0-0.03l6.25-39.03h285.81l0,0.03L498.26,342.61z M211.45,342.56h286.77      l5.18-38.96H217.69L211.45,342.56z"></path>
			</g>
			<g>
				<polygon style="fill:#3E5974;" points="226.96,245.55 217.66,303.58 503.42,303.58 511.13,245.55     "></polygon>
			</g>
			<g>
				<g>
					<path style="fill:#263238;" d="M226.96,245.55c2.07,0,115.76-0.1,284.18-0.23l0.27,0l-0.04,0.27       c-8.38,63.11-17.88,134.68-27.91,210.27l-0.03,0.23h-0.23c-1.03,0-2.14,0-3.26,0c-106.89-0.02-205.93-0.03-286.65-0.05h-0.25       l0.04-0.25C213.59,328.48,226.68,247.29,226.96,245.55c-0.28,1.74-13.2,82.96-33.46,210.3l-0.21-0.25       c80.72-0.01,179.76-0.03,286.65-0.05c1.12,0,2.23,0,3.26,0l-0.26,0.23c10.05-75.59,19.57-147.16,27.96-210.27l0.23,0.27       C342.71,245.64,229.02,245.55,226.96,245.55z"></path>
				</g>
			</g>
			<g>
				<g>
					<path style="fill:#263238;" d="M503.42,303.58c0,0.14-63.97,0.26-142.87,0.26c-78.93,0-142.89-0.12-142.89-0.26       s63.96-0.26,142.89-0.26C439.45,303.32,503.42,303.43,503.42,303.58z"></path>
				</g>
			</g>
			<g>
				<g>
					<path style="fill:#263238;" d="M498.24,342.58c0,0.14-64.33,0.26-143.68,0.26c-79.37,0-143.69-0.12-143.69-0.26       s64.32-0.26,143.69-0.26C433.9,342.32,498.24,342.44,498.24,342.58z"></path>
				</g>
			</g>
			<g>
				<g>
					<path style="fill:#263238;" d="M492.4,378.47c0,0.14-64.33,0.26-143.68,0.26c-79.37,0-143.69-0.12-143.69-0.26       s64.32-0.26,143.69-0.26C428.07,378.21,492.4,378.33,492.4,378.47z"></path>
				</g>
			</g>
			<g>
				<g>
					<path style="fill:#263238;" d="M486.57,414.36c0,0.14-64.33,0.26-143.68,0.26c-79.37,0-143.69-0.12-143.69-0.26       c0-0.14,64.32-0.26,143.69-0.26C422.23,414.1,486.57,414.22,486.57,414.36z"></path>
				</g>
			</g>
			<g>
				<g>
					<path style="fill:#263238;" d="M233.67,456.14c-0.14-0.02,5.11-34.19,11.73-76.32c6.62-42.14,12.11-76.27,12.25-76.24       c0.14,0.02-5.11,34.19-11.73,76.32C239.3,422.02,233.82,456.16,233.67,456.14z"></path>
				</g>
			</g>
			<g>
				<g>
					<path style="fill:#263238;" d="M277.9,456.14c-0.14-0.02,5.11-34.19,11.73-76.32c6.62-42.14,12.11-76.27,12.25-76.24       c0.14,0.02-5.11,34.19-11.73,76.32C283.52,422.02,278.04,456.16,277.9,456.14z"></path>
				</g>
			</g>
			<g>
				<g>
					<path style="fill:#263238;" d="M318.99,454.61c-0.14-0.02,5.06-33.85,11.61-75.55c6.56-41.71,11.99-75.5,12.13-75.48       c0.14,0.02-5.06,33.85-11.61,75.56C324.56,420.84,319.13,454.63,318.99,454.61z"></path>
				</g>
			</g>
			<g>
				<g>
					<path style="fill:#263238;" d="M359.65,455.82c-0.14-0.02,5.1-34.12,11.71-76.16c6.61-42.05,12.08-76.11,12.22-76.08       c0.14,0.02-5.1,34.12-11.71,76.16C365.27,421.78,359.79,455.84,359.65,455.82z"></path>
				</g>
			</g>
			<g>
				<g>
					<path style="fill:#263238;" d="M400.5,455.82c-0.14-0.02,5.1-34.12,11.71-76.16c6.61-42.05,12.08-76.11,12.22-76.08       c0.14,0.02-5.1,34.12-11.71,76.16C406.12,421.78,400.65,455.84,400.5,455.82z"></path>
				</g>
			</g>
			<g>
				<g>
					<path style="fill:#263238;" d="M441.32,456.04c-0.14-0.02,5.11-34.17,11.72-76.27c6.62-42.11,12.1-76.22,12.24-76.19       c0.14,0.02-5.11,34.17-11.73,76.28C446.94,421.95,441.46,456.06,441.32,456.04z"></path>
				</g>
			</g>
		</g>
		<g style="opacity:0.2;">
			<g>
				<path d="M415.62,306.3c4.93-2.18,8-7.3,9.28-12.54s1.07-10.69,1.25-16.07c0.18-5.38,0.83-10.95,3.59-15.57      c1.63-2.74,3.92-5.01,5.73-7.63c1.81-2.62,3.15-5.83,2.48-8.95l-30.78,0.16L415.62,306.3z"></path>
			</g>
		</g>
		<g>
			<g>
				<path style="fill:#E10454;" d="M287.95,345.47c0.01,0.01-0.09,0.14-0.3,0.36c-0.25,0.26-0.56,0.58-0.93,0.96      c-0.81,0.83-2.01,2.01-3.5,3.45c-2.98,2.89-7.17,6.8-11.92,10.99c-4.75,4.19-9.15,7.86-12.39,10.46      c-1.62,1.3-2.94,2.34-3.86,3.04c-0.42,0.32-0.78,0.58-1.07,0.8c-0.25,0.18-0.38,0.27-0.4,0.25c-0.01-0.01,0.1-0.13,0.33-0.33      c0.28-0.24,0.61-0.53,1.01-0.88c0.95-0.8,2.22-1.87,3.75-3.17c3.17-2.67,7.53-6.38,12.27-10.57c4.74-4.19,8.96-8.05,12.01-10.87      c1.48-1.36,2.69-2.49,3.61-3.33c0.39-0.35,0.72-0.65,0.99-0.89C287.81,345.56,287.94,345.46,287.95,345.47z"></path>
			</g>
		</g>
		<g>
			<g>
				<path style="fill:#E10454;" d="M285.69,376.2c-0.03,0.02-0.45-0.4-1.2-1.18c-0.8-0.85-1.85-1.98-3.13-3.33      c-2.7-2.88-6.31-6.74-10.31-11c-4.04-4.23-7.69-8.05-10.42-10.91c-1.29-1.35-2.35-2.46-3.16-3.31      c-0.74-0.79-1.14-1.23-1.11-1.26c0.03-0.03,0.47,0.37,1.25,1.12c0.78,0.74,1.9,1.83,3.27,3.19c2.74,2.72,6.48,6.53,10.53,10.81      c4.05,4.28,7.64,8.22,10.21,11.11c1.28,1.44,2.31,2.62,3.01,3.45C285.35,375.71,285.72,376.17,285.69,376.2z"></path>
			</g>
		</g>
		<g>
			<g>
				<path style="fill:#E10454;" d="M296.37,354.66c0,0,0.1-0.26,0.31-0.77c0.22-0.5,0.59-1.24,1.2-2.12      c1.21-1.73,3.54-4.13,7.41-5.53c0.96-0.35,2.01-0.63,3.13-0.78c1.12-0.18,2.32-0.2,3.56-0.09c2.48,0.2,5.12,1.08,7.6,2.59      c2.48,1.51,4.79,3.71,6.55,6.5c1.72,2.78,2.98,6.23,2.74,9.93c-0.12,1.84-0.69,3.7-1.71,5.34c-1.02,1.64-2.44,3.07-4.12,4.17      c-3.36,2.2-7.58,3.31-11.88,3.09c-2.15-0.12-4.33-0.57-6.4-1.39c-2.07-0.83-4.04-2.08-5.6-3.79c-0.77-0.87-1.42-1.85-1.93-2.91      c-0.5-1.07-0.83-2.21-1.02-3.39c-0.36-2.36-0.1-4.81,0.62-7.13c1.45-4.64,4.78-8.81,9.26-11.25c4.44-2.52,10.18-2.82,15.05-0.69      c2.44,1.03,4.65,2.69,6.31,4.83c1.67,2.14,2.65,4.78,2.98,7.5c0.33,2.72-0.08,5.56-1.3,8.08c-0.61,1.25-1.41,2.42-2.38,3.44      c-0.98,1.01-2.09,1.88-3.3,2.59c-4.9,2.81-10.9,3.18-16.08,1.51c-2.6-0.83-5.03-2.18-7-4.04c-1.97-1.84-3.4-4.28-3.9-6.9      c-0.53-2.6-0.22-5.39,1.05-7.71c0.63-1.16,1.51-2.17,2.54-2.96c1.03-0.8,2.2-1.38,3.41-1.8c2.42-0.83,4.97-1.03,7.44-0.98      c2.47,0.06,4.92,0.34,7.26,1.02c2.32,0.67,4.55,1.74,6.3,3.38c1.75,1.62,2.94,3.79,3.39,6.06c0.47,2.27,0.3,4.62-0.39,6.75      c-0.7,2.14-1.95,4.03-3.49,5.55c-3.09,3.04-7.21,4.71-11.21,4.88c-2,0.09-3.99-0.19-5.8-0.85c-1.81-0.67-3.44-1.72-4.68-3.09      c-1.26-1.35-2.16-2.95-2.71-4.61c-0.57-1.65-0.8-3.37-0.73-5.02c0.1-3.33,1.59-6.3,3.54-8.44c1.96-2.16,4.37-3.58,6.73-4.35      c2.37-0.8,4.7-0.87,6.72-0.64c4.08,0.52,6.91,2.21,8.61,3.47c0.86,0.64,1.46,1.2,1.85,1.58c0.38,0.39,0.57,0.6,0.57,0.6      s-0.21-0.18-0.61-0.56c-0.4-0.37-1.01-0.91-1.88-1.54c-1.71-1.22-4.54-2.87-8.57-3.35c-2-0.21-4.29-0.12-6.62,0.67      c-2.32,0.78-4.68,2.19-6.59,4.31c-1.91,2.1-3.34,5-3.43,8.25c-0.06,1.61,0.16,3.29,0.73,4.9c0.55,1.61,1.43,3.17,2.65,4.47      c1.2,1.32,2.78,2.34,4.54,2.98c1.76,0.63,3.7,0.9,5.65,0.81c3.9-0.17,7.93-1.82,10.93-4.79c1.49-1.48,2.7-3.31,3.37-5.38      c0.67-2.06,0.82-4.33,0.37-6.52c-0.44-2.19-1.57-4.26-3.26-5.81c-1.68-1.57-3.84-2.61-6.12-3.26c-2.28-0.66-4.7-0.94-7.14-0.99      c-2.43-0.05-4.93,0.16-7.27,0.97c-2.33,0.78-4.48,2.32-5.66,4.53c-1.2,2.19-1.5,4.86-0.99,7.37c0.48,2.52,1.84,4.85,3.75,6.63      c1.9,1.79,4.27,3.11,6.8,3.92c5.05,1.63,10.92,1.27,15.66-1.46c1.17-0.69,2.25-1.53,3.19-2.5c0.93-0.98,1.7-2.1,2.29-3.3      c1.17-2.41,1.57-5.16,1.25-7.79c-0.31-2.63-1.27-5.18-2.87-7.24c-1.6-2.06-3.73-3.67-6.1-4.67c-4.73-2.06-10.28-1.78-14.61,0.66      c-4.36,2.37-7.62,6.44-9.04,10.95c-0.7,2.26-0.96,4.64-0.61,6.91c0.17,1.13,0.5,2.24,0.97,3.26c0.49,1.02,1.11,1.96,1.85,2.8      c1.5,1.66,3.41,2.87,5.43,3.69c2.02,0.81,4.15,1.25,6.26,1.38c4.21,0.23,8.36-0.85,11.64-2.99c3.29-2.11,5.5-5.59,5.69-9.19      c0.25-3.59-0.96-6.98-2.65-9.73c-1.72-2.76-3.99-4.93-6.42-6.43c-2.44-1.5-5.03-2.38-7.47-2.59c-1.22-0.11-2.4-0.1-3.51,0.07      c-1.11,0.14-2.15,0.41-3.1,0.75c-3.84,1.35-6.17,3.7-7.4,5.4c-0.62,0.86-1.01,1.58-1.24,2.08      C296.5,354.41,296.37,354.66,296.37,354.66z"></path>
			</g>
		</g>
		<g>
			<g>
				<path style="fill:#E10454;" d="M323.46,382.27c0.09,0.11-7.84,6.89-17.72,15.14c-9.88,8.25-17.97,14.85-18.06,14.74      c-0.09-0.11,7.84-6.89,17.72-15.14C315.28,388.76,323.37,382.16,323.46,382.27z"></path>
			</g>
		</g>
		<g>
			<g>
				<path style="fill:#E10454;" d="M325.19,411.27c-0.02,0.03-0.5-0.31-1.33-0.95c-0.9-0.7-2.08-1.63-3.51-2.75      c-2.95-2.34-7-5.59-11.46-9.21c-4.46-3.62-8.48-6.92-11.37-9.33c-1.39-1.17-2.53-2.14-3.41-2.87c-0.8-0.69-1.23-1.08-1.2-1.11      c0.02-0.03,0.5,0.31,1.33,0.95c0.9,0.7,2.08,1.63,3.51,2.75c2.95,2.34,7,5.59,11.46,9.21c4.46,3.62,8.47,6.92,11.36,9.33      c1.39,1.17,2.53,2.14,3.41,2.87C324.78,410.85,325.21,411.25,325.19,411.27z"></path>
			</g>
		</g>
		<g>
			<g>
				<path style="fill:#E10454;" d="M406.94,382.66c0.09,0.12-7.5,5.92-16.95,12.97c-9.45,7.05-17.17,12.67-17.26,12.56      c-0.09-0.12,7.5-5.92,16.95-12.97C399.13,388.16,406.85,382.54,406.94,382.66z"></path>
			</g>
		</g>
		<g>
			<g>
				<path style="fill:#E10454;" d="M409.88,407.26c-0.08,0.12-8.13-4.88-17.99-11.16c-9.86-6.29-17.79-11.48-17.71-11.6      c0.08-0.12,8.13,4.87,17.99,11.16C402.03,401.95,409.96,407.14,409.88,407.26z"></path>
			</g>
		</g>
		<g>
			<g>
				<path style="fill:#E10454;" d="M324.76,455.83c-0.1-0.1,7.78-8.35,17.6-18.43c9.82-10.08,17.87-18.17,17.97-18.07      c0.1,0.1-7.77,8.35-17.6,18.44C332.91,447.84,324.86,455.93,324.76,455.83z"></path>
			</g>
		</g>
		<g>
			<g>
				<path style="fill:#E10454;" d="M358.07,455.82c-0.01,0.01-0.13-0.11-0.32-0.34c-0.23-0.29-0.51-0.63-0.85-1.05      c-0.78-0.98-1.82-2.28-3.08-3.87c-2.62-3.25-6.31-7.68-10.6-12.39c-4.29-4.71-8.36-8.8-11.36-11.71      c-1.46-1.4-2.66-2.56-3.57-3.43c-0.38-0.37-0.7-0.68-0.96-0.94c-0.22-0.22-0.32-0.34-0.31-0.35c0.01-0.01,0.14,0.08,0.38,0.28      c0.28,0.24,0.62,0.52,1.03,0.87c0.89,0.76,2.15,1.89,3.68,3.31c3.07,2.84,7.19,6.9,11.49,11.62c4.3,4.72,7.96,9.2,10.5,12.52      c1.27,1.66,2.28,3.02,2.96,3.97c0.3,0.44,0.56,0.8,0.77,1.11C358,455.67,358.08,455.81,358.07,455.82z"></path>
			</g>
		</g>
		<g>
			<g>
				<g>
					<path style="fill:#EBEBEB;" d="M276.21,413.76c0,0,0.32,24.57-5.88,39.28l-37.79-6.44c0,0,11.38-23.28,8.28-36.22       L276.21,413.76z"></path>
				</g>
			</g>
			<g>
				<g>
					<g>
						<path style="fill:#484574;" d="M276.2,412.84c0,0-4.73,30.13-7.63,39.11l-37.57-7.41c0,0,7.73-29.16,7.62-37.28L276.2,412.84z        "></path>
					</g>
				</g>
				<g>
					<g>
						<g>
							<path style="fill:#FFFFFF;" d="M242.44,420.78c-0.03,0.14,5.58,1.44,12.53,2.9c6.95,1.46,12.61,2.54,12.63,2.4         c0.03-0.14-5.58-1.44-12.53-2.9C248.12,421.72,242.47,420.64,242.44,420.78z"></path>
						</g>
					</g>
				</g>
				<g>
					<g>
						<g>
							<path style="fill:#FFFFFF;" d="M241.48,427.17c-0.03,0.14,5.58,1.44,12.53,2.9c6.95,1.46,12.61,2.54,12.64,2.4         c0.03-0.14-5.58-1.44-12.53-2.9C247.17,428.1,241.51,427.03,241.48,427.17z"></path>
						</g>
					</g>
				</g>
				<g>
					<g>
						<g>
							<path style="fill:#FFFFFF;" d="M246.98,434.4c-0.01,0.07,0.77,0.3,2.06,0.62c1.29,0.32,3.07,0.72,5.05,1.14         c1.98,0.42,3.78,0.77,5.08,0.99c1.31,0.23,2.12,0.33,2.14,0.27c0.01-0.07-0.77-0.3-2.06-0.62c-1.29-0.32-3.07-0.72-5.05-1.14         c-1.98-0.42-3.78-0.77-5.08-0.99C247.81,434.43,246.99,434.33,246.98,434.4z"></path>
						</g>
					</g>
				</g>
			</g>
		</g>
		<g>
			<g>
				<g>
					<path style="fill:#EBEBEB;" d="M454.98,344.77c0,0,3.87,23.95-0.05,39.22l-37.84-0.81c0,0,7.74-24.38,2.84-36.57L454.98,344.77       z"></path>
				</g>
			</g>
			<g>
				<g>
					<g>
						<path style="fill:#484574;" d="M454.83,343.87c0,0-0.26,30.11-1.79,39.3l-37.77-1.79c0,0,3.32-29.6,2.04-37.51H454.83z"></path>
					</g>
				</g>
				<g>
					<g>
						<g>
							<path style="fill:#FFFFFF;" d="M422.64,357.27c0,0.14,5.68,0.26,12.69,0.27c7.01,0.01,12.7-0.09,12.7-0.23         c0-0.14-5.68-0.26-12.7-0.27C428.32,357.03,422.64,357.13,422.64,357.27z"></path>
						</g>
					</g>
				</g>
				<g>
					<g>
						<g>
							<path style="fill:#FFFFFF;" d="M423,363.64c0,0.14,5.68,0.26,12.69,0.27c7.01,0.01,12.7-0.09,12.7-0.23         c0-0.14-5.68-0.26-12.7-0.27C428.68,363.39,423,363.5,423,363.64z"></path>
						</g>
					</g>
				</g>
				<g>
					<g>
						<g>
							<path style="fill:#FFFFFF;" d="M429.77,369.51c0,0.07,0.81,0.13,2.12,0.18c1.31,0.05,3.12,0.08,5.11,0.08         c2,0,3.81-0.02,5.12-0.07c1.31-0.04,2.12-0.11,2.12-0.17c0-0.07-0.81-0.13-2.12-0.18c-1.31-0.05-3.12-0.08-5.11-0.08         c-2,0-3.81,0.02-5.11,0.07C430.58,369.38,429.77,369.44,429.77,369.51z"></path>
						</g>
					</g>
				</g>
			</g>
		</g>
		<g>
			<path style="fill:#5980A6;" d="M463.04,275.74c-7.06,0-14.17-4.42-17.91-11.4c-3.61-6.74-4.78-14.98-3.2-22.61     c2.08-10.03,8.7-18.2,16.87-20.82c6.96-2.23,19.38-0.97,25.23,8.81c4.56,7.61,4.08,15.5,4.06,15.83c-0.11,1.65-1.54,2.9-3.2,2.79     c-1.65-0.11-2.9-1.54-2.79-3.19c0.01-0.12,0.33-6.43-3.22-12.35c-4.52-7.55-14.43-7.41-18.25-6.18     c-6.99,2.24-11.48,9.81-12.83,16.32c-1.3,6.27-0.35,13.03,2.61,18.55c2.95,5.51,8.92,8.93,14.21,8.11     c1.63-0.25,3.17,0.87,3.42,2.51c0.25,1.64-0.87,3.17-2.51,3.42C464.71,275.68,463.88,275.74,463.04,275.74z"></path>
		</g>
		<g>
			<path style="fill:#5980A6;" d="M269.32,275.74c-7.06,0-14.17-4.42-17.91-11.4c-3.61-6.74-4.78-14.98-3.2-22.6     c1.75-8.44,7.67-18.15,16.95-20.84c4.23-1.22,9.32-0.96,13.62,0.7l-2.16,5.6c-3.67-1.42-7.47-1.2-9.8-0.53     c-6.89,1.99-11.36,9.62-12.75,16.29c-1.3,6.27-0.35,13.03,2.61,18.55c2.95,5.51,8.94,8.93,14.21,8.11l0.91,5.93     C270.99,275.68,270.15,275.74,269.32,275.74z"></path>
		</g>
		<g>
			<polygon style="fill:#3E5974;" points="460.53,245.71 457.77,260.82 498.38,260.82 501.99,245.86    "></polygon>
		</g>
		<g>
			<path style="fill:#263238;" d="M279.61,273.35c0,3.57-2.89,6.46-6.46,6.46c-3.57,0-6.46-2.89-6.46-6.46     c0-3.57,2.89-6.46,6.46-6.46C276.72,266.89,279.61,269.79,279.61,273.35z"></path>
		</g>
		<g>
			<path style="fill:#263238;" d="M473.12,273.35c0,3.57-2.89,6.46-6.46,6.46c-3.57,0-6.46-2.89-6.46-6.46     c0-3.57,2.89-6.46,6.46-6.46C470.23,266.89,473.12,269.79,473.12,273.35z"></path>
		</g>
	</g>
</g>
<g id="Character">
	<g>
		<g>
			<g>
				<polygon style="fill:#FFBE9D;" points="366.55,148.32 355.93,188.6 319.27,192.54 319.27,199.04 370.78,200.85 380.46,155.66           "></polygon>
			</g>
		</g>
	</g>
	<g>
		<g>
			<g>
				<path style="fill:#7059A6;" d="M382.01,201.92c0,0-57.28-2.73-73.59,10.04c-16.32,12.77-8.47,33.59-8.47,33.59l92.19-0.24      l8.13-46.72L382.01,201.92z"></path>
			</g>
			<g>
				<g>
					<path style="fill:#455A64;" d="M391.75,232.75c0,0.02-0.29,0-0.82-0.06c-0.54-0.06-1.33-0.14-2.35-0.27       c-2.04-0.25-4.98-0.67-8.6-1.28c-7.24-1.21-17.19-3.3-27.95-6.46c-5.38-1.59-10.46-3.2-15.16-4.36       c-4.7-1.14-9.02-1.88-12.67-2.02c-3.65-0.16-6.62,0.1-8.63,0.49c-1.02,0.13-1.78,0.38-2.31,0.47       c-0.53,0.11-0.81,0.17-0.81,0.15c-0.01-0.02,0.27-0.1,0.79-0.25c0.53-0.12,1.28-0.41,2.3-0.57c2.01-0.45,5-0.77,8.68-0.66       c3.69,0.1,8.04,0.8,12.77,1.92c4.73,1.14,9.83,2.74,15.2,4.33c10.74,3.15,20.65,5.29,27.87,6.6c3.61,0.66,6.54,1.13,8.57,1.45       c0.98,0.15,1.75,0.28,2.33,0.37C391.47,232.68,391.75,232.73,391.75,232.75z"></path>
				</g>
			</g>
			<g>
				<g>
					<path style="fill:#455A64;" d="M338.51,220.04c-0.12,0.12-2.04-1.96-5.08-3.53c-3.02-1.61-5.82-2-5.79-2.17       c0.01-0.06,0.72-0.05,1.84,0.18c1.12,0.23,2.64,0.71,4.19,1.52c1.55,0.82,2.81,1.79,3.64,2.58       C338.14,219.43,338.56,220,338.51,220.04z"></path>
				</g>
			</g>
		</g>
		<g>
			<g>
				<path style="fill:#9D035D;" d="M388.07,326.43l0.77,24.08l-4.88,19.22c-0.35,1.39,0.54,2.78,1.95,3.04l0,0      c0.79,0.14,1.59-0.1,2.16-0.66c3.64-3.56,16.98-16.72,16.83-18.48c-0.18-2.04,0.87-25.45,0.87-25.45L388.07,326.43z"></path>
			</g>
			<g style="opacity:0.6;">
				<path style="fill:#FFFFFF;" d="M385.91,372.76L404.88,352l0.01,1.02c0.01,0.88-0.29,1.74-0.86,2.42      c-1.51,1.81-5.8,6.72-15.89,16.67C387.55,372.68,386.71,372.93,385.91,372.76L385.91,372.76z"></path>
			</g>
			<g style="opacity:0.6;">
				<g>
					<path style="fill:#FFFFFF;" d="M399.87,344.27c-0.6,0.42-0.79,1.34-0.39,1.95c0.4,0.62,1.33,0.82,1.93,0.4       c0.61-0.41,0.87-1.5,0.4-2.07c-0.46-0.57-1.57-0.74-2.06-0.2"></path>
				</g>
			</g>
			<g>
				<g>
					<path style="fill:#263238;" d="M391.32,362.18c-0.14,0.07-0.69-1.19-2.13-1.85c-1.42-0.71-2.75-0.36-2.78-0.51       c-0.02-0.06,0.28-0.25,0.84-0.33c0.56-0.09,1.37-0.02,2.16,0.36c0.79,0.38,1.35,0.97,1.63,1.46       C391.33,361.81,391.38,362.16,391.32,362.18z"></path>
				</g>
			</g>
			<g>
				<g>
					<path style="fill:#263238;" d="M389.63,365.43c-0.11,0.11-0.89-0.67-2.14-1.02c-1.24-0.37-2.32-0.13-2.36-0.28       c-0.07-0.12,1.08-0.64,2.5-0.23C389.05,364.3,389.75,365.36,389.63,365.43z"></path>
				</g>
			</g>
			<g>
				<g>
					<path style="fill:#263238;" d="M394.47,358.02c-0.11,0.12-1.31-1.08-3.2-1.79c-1.88-0.74-3.57-0.64-3.58-0.8       c-0.04-0.13,1.75-0.48,3.77,0.31C393.49,356.5,394.59,357.95,394.47,358.02z"></path>
				</g>
			</g>
			<g>
				<g>
					<path style="fill:#263238;" d="M394.85,350.68c-0.06,0.14-1.4-0.4-3.13-0.45c-1.73-0.07-3.1,0.38-3.15,0.23       c-0.07-0.12,1.31-0.83,3.17-0.76C393.6,349.76,394.92,350.57,394.85,350.68z"></path>
				</g>
			</g>
			<g>
				<g>
					<path style="fill:#263238;" d="M394.8,343.61c-0.07,0.14-1.42-0.65-3.25-0.55c-1.83,0.06-3.1,0.96-3.19,0.83       c-0.04-0.05,0.22-0.35,0.77-0.68c0.55-0.33,1.41-0.63,2.39-0.68c0.98-0.04,1.87,0.19,2.44,0.47       C394.55,343.27,394.84,343.55,394.8,343.61z"></path>
				</g>
			</g>
			<g>
				<g>
					<path style="fill:#263238;" d="M391.58,341.71c-0.03,0-0.09-0.32-0.04-0.91c0.05-0.58,0.21-1.44,0.7-2.39       c0.26-0.45,0.52-1.03,1.19-1.35c0.33-0.16,0.83-0.11,1.12,0.21c0.29,0.31,0.38,0.7,0.39,1.08c-0.01,1.53-1.31,3.02-3.03,3.26       c-1.73,0.21-3.3-0.77-3.99-2.08c-0.15-0.34-0.26-0.76-0.08-1.17c0.18-0.41,0.67-0.58,1.01-0.52c0.72,0.1,1.17,0.51,1.59,0.81       c0.84,0.66,1.36,1.36,1.66,1.86c0.31,0.5,0.41,0.82,0.38,0.83c-0.08,0.06-0.62-1.18-2.26-2.39c-0.41-0.28-0.89-0.63-1.41-0.67       c-0.25-0.02-0.47,0.08-0.55,0.28c-0.09,0.2-0.04,0.5,0.1,0.76c0.59,1.08,2.03,1.96,3.48,1.76c1.45-0.18,2.59-1.5,2.61-2.73       c0-0.3-0.08-0.59-0.24-0.77c-0.16-0.17-0.4-0.22-0.62-0.13c-0.47,0.19-0.78,0.7-1.03,1.13       C391.58,340.37,391.69,341.73,391.58,341.71z"></path>
				</g>
			</g>
		</g>
		<g>
			<path style="fill:#7059A6;" d="M400.27,198.58c0,0-24.77,46.83-25.11,54.97c-0.34,8.14,0,83.47,0,83.47h38.34     c1.02,0,6.74-33.93,5.58-41.74c-1.17-7.8-5.3-49.79-5.3-49.79h22.06c0,0,6.05-6.47,5.83-14.68c-0.12-4.53-3.08-13.79-6.03-18.7     c-1.89-3.15-13.99-19.65-13.99-19.65L400.27,198.58z"></path>
		</g>
		<g>
			<g>
				<path style="fill:#455A64;" d="M398.61,201.75c0.01,0-0.03,0.1-0.11,0.27c-0.09,0.2-0.21,0.45-0.36,0.76      c-0.35,0.7-0.83,1.68-1.44,2.92c-0.64,1.27-1.42,2.82-2.31,4.6c-0.45,0.9-0.93,1.86-1.44,2.87c-0.48,1.03-0.98,2.13-1.51,3.27      c-2.13,4.59-4.67,10.04-7.48,16.09c-1.41,3.03-2.89,6.2-4.43,9.5c-0.76,1.65-1.54,3.32-2.33,5.02c-0.74,1.71-1.32,3.51-1.7,5.38      c-0.39,1.87-0.55,3.75-0.58,5.63c-0.07,1.87-0.1,3.72-0.13,5.54c-0.05,3.63-0.07,7.14-0.06,10.48      c0.01,6.68,0.08,12.69,0.15,17.74c0.08,5.02,0.14,9.1,0.18,11.96c0.02,1.38,0.03,2.47,0.04,3.25c0,0.35,0,0.63,0,0.85      c0,0.19-0.01,0.29-0.02,0.29c-0.01,0-0.02-0.1-0.04-0.29c-0.01-0.22-0.03-0.5-0.05-0.85c-0.03-0.78-0.08-1.87-0.14-3.25      c-0.1-2.82-0.23-6.91-0.35-11.96c-0.12-5.05-0.22-11.07-0.26-17.75c-0.02-3.34-0.01-6.85,0.03-10.49      c0.03-1.82,0.06-3.67,0.13-5.55c0.03-1.87,0.19-3.81,0.59-5.71c0.39-1.91,0.98-3.75,1.74-5.48c0.79-1.7,1.58-3.38,2.35-5.03      c1.55-3.29,3.04-6.46,4.46-9.49c2.85-6.03,5.42-11.47,7.58-16.05c0.54-1.14,1.06-2.23,1.55-3.26c0.52-1.01,1.02-1.96,1.48-2.85      c0.93-1.77,1.73-3.3,2.39-4.56c0.65-1.22,1.16-2.18,1.53-2.87c0.17-0.3,0.3-0.55,0.41-0.74      C398.55,201.83,398.6,201.74,398.61,201.75z"></path>
			</g>
		</g>
		<g>
			<g>
				<path style="fill:#455A64;" d="M390.59,217.7c-0.14,0.04-0.97-2.6-1.99-5.85c-1.02-3.25-1.84-5.89-1.7-5.94      c0.13-0.05,1.18,2.52,2.2,5.79C390.12,214.96,390.73,217.67,390.59,217.7z"></path>
			</g>
		</g>
		<g>
			<g>
				<path style="fill:#455A64;" d="M419.16,293.85c-0.02,0-0.06-0.18-0.11-0.53c-0.06-0.41-0.13-0.92-0.22-1.53      c-0.17-1.41-0.41-3.32-0.7-5.65c-0.55-4.85-1.29-11.42-2.11-18.67c-0.8-7.3-1.49-13.91-1.89-18.7c-0.2-2.34-0.36-4.26-0.48-5.68      c-0.04-0.62-0.08-1.13-0.1-1.55c-0.02-0.35-0.02-0.54,0-0.54c0.02,0,0.05,0.18,0.11,0.53c0.05,0.41,0.12,0.92,0.2,1.54      c0.16,1.41,0.38,3.33,0.64,5.66c0.53,4.85,1.25,11.42,2.04,18.68c0.76,7.26,1.45,13.83,1.96,18.68c0.22,2.34,0.4,4.26,0.54,5.67      c0.05,0.62,0.09,1.13,0.12,1.54C419.17,293.66,419.17,293.85,419.16,293.85z"></path>
			</g>
		</g>
	</g>
	<g>
		<g>
			<path style="fill:#263238;" d="M409.42,73.16c-0.59-3.95,2.84-7.85,6.81-8.32c3.97-0.48,7.94,2.05,9.77,5.61     c1.83,3.56,1.7,7.9,0.3,11.64c-0.95,2.53-2.85,5.09-5.54,5.29c-2.59,0.19-4.75-1.85-6.53-3.74"></path>
		</g>
		<g>
			<path style="fill:#263238;" d="M381.27,92.98c-7.97-17.53,10.99-26.34,21.33-23.41c9.72,2.75,13.87,7.58,15.47,14.09     c1.6,6.51,1.52,13.55-1.03,19.75c-1.26,3.05-3.52,6.16-6.8,6.54"></path>
		</g>
		<g>
			<g>
				<g>
					<g>
						<g>
							<g>
								<g>
									<g>
										<g>
											<g>
												<g>
													<g>
														<g>
															<g>
																<path style="fill:#FFBE9D;" d="M408.8,79.31c1.71,0.18,2.99,1.64,2.96,3.35l0,0l-1.87,44.62                  c-0.07,5.27-7.77,8.25-13.41,8.13l0,0c-5.7-0.12-5.89-2.91-5.97-7.93c-0.14-8.38-0.13-11.52-0.14-11.47                  c0,0-7.2-1.2-8.69-10.59c-0.74-4.67-0.51-12.33-0.11-18.59c0.36-5.63,4.09-12.55,9.7-11.95L408.8,79.31z"></path>
															</g>
														</g>
													</g>
												</g>
											</g>
										</g>
									</g>
									<g>
										<g>
											<g>
												<g>
													<g>
														<g>
															<g>
																<g>
																	<path style="fill:#263238;" d="M385.21,92.17c-0.02,0.64,0.5,1.18,1.16,1.22c0.66,0.04,1.22-0.45,1.24-1.09                   c0.02-0.64-0.5-1.18-1.16-1.22C385.79,91.05,385.23,91.53,385.21,92.17z"></path>
																</g>
															</g>
														</g>
													</g>
												</g>
											</g>
										</g>
										<g>
											<g>
												<g>
													<g>
														<g>
															<g>
																<g>
																	<g>
																		<path style="fill:#263238;" d="M383.22,90.82c0.15,0.16,1.06-0.52,2.36-0.51c1.29-0.02,2.25,0.65,2.39,0.49                    c0.07-0.07-0.08-0.35-0.5-0.66c-0.41-0.3-1.1-0.59-1.91-0.59c-0.81,0-1.49,0.3-1.88,0.61                    C383.29,90.46,383.15,90.75,383.22,90.82z"></path>
																	</g>
																</g>
															</g>
														</g>
													</g>
												</g>
											</g>
										</g>
									</g>
									<g>
										<g>
											<g>
												<g>
													<g>
														<g>
															<g>
																<g>
																	<path style="fill:#263238;" d="M397.88,92.17c-0.02,0.64,0.5,1.18,1.16,1.22c0.66,0.04,1.22-0.45,1.24-1.09                   c0.02-0.64-0.5-1.18-1.16-1.22C398.46,91.05,397.9,91.53,397.88,92.17z"></path>
																</g>
															</g>
														</g>
													</g>
												</g>
											</g>
										</g>
										<g>
											<g>
												<g>
													<g>
														<g>
															<g>
																<g>
																	<g>
																		<path style="fill:#263238;" d="M395.97,91.06c0.15,0.16,1.06-0.52,2.36-0.51c1.29-0.02,2.25,0.65,2.39,0.49                    c0.07-0.07-0.08-0.35-0.5-0.66c-0.41-0.3-1.1-0.59-1.91-0.59c-0.81,0-1.49,0.3-1.88,0.61                    C396.03,90.7,395.89,90.99,395.97,91.06z"></path>
																	</g>
																</g>
															</g>
														</g>
													</g>
												</g>
											</g>
										</g>
									</g>
									<g>
										<g>
											<g>
												<g>
													<g>
														<g>
															<g>
																<g>
																	<path style="fill:#263238;" d="M391.26,100.67c0.01-0.07-0.8-0.21-2.11-0.38c-0.33-0.03-0.64-0.1-0.7-0.33                   c-0.08-0.24,0.06-0.6,0.22-0.98c0.31-0.8,0.64-1.64,0.98-2.52c1.36-3.59,2.34-6.54,2.2-6.59                   c-0.15-0.05-1.36,2.81-2.72,6.4c-0.33,0.88-0.64,1.73-0.94,2.54c-0.13,0.38-0.34,0.8-0.17,1.3                   c0.09,0.25,0.33,0.43,0.54,0.48c0.21,0.06,0.4,0.07,0.56,0.08C390.44,100.74,391.26,100.74,391.26,100.67z"></path>
																</g>
															</g>
														</g>
													</g>
												</g>
											</g>
										</g>
									</g>
									<g>
										<g>
											<g>
												<g>
													<g>
														<g>
															<g>
																<path style="fill:#EB996E;" d="M390.37,116.01c0,0,6.32,0.41,12.58-3.36c0,0-3.05,6.45-12.45,5.57L390.37,116.01z"></path>
															</g>
														</g>
													</g>
												</g>
											</g>
										</g>
									</g>
									<g>
										<g>
											<g>
												<g>
													<g>
														<g>
															<g>
																<path style="fill:#EB996E;" d="M391.81,103.79c0.47-0.62,1.28-0.95,2.09-0.87c0.56,0.06,1.13,0.33,1.47,0.79                  c0.34,0.46,0.41,1.11,0.1,1.54c-0.35,0.49-1.08,0.61-1.7,0.43c-0.62-0.18-1.15-0.58-1.66-0.99                  c-0.14-0.11-0.28-0.23-0.37-0.38c-0.09-0.15-0.11-0.36,0-0.48"></path>
															</g>
														</g>
													</g>
												</g>
											</g>
										</g>
									</g>
									<g>
										<g>
											<g>
												<g>
													<g>
														<g>
															<g>
																<g>
																	<path style="fill:#263238;" d="M395.08,101.57c-0.21-0.01-0.21,1.39-1.42,2.39c-1.2,1-2.7,0.84-2.71,1.04                   c-0.02,0.09,0.33,0.27,0.97,0.29c0.62,0.02,1.53-0.18,2.26-0.79c0.73-0.61,1.05-1.43,1.1-2.01                   C395.33,101.91,395.17,101.56,395.08,101.57z"></path>
																</g>
															</g>
														</g>
													</g>
												</g>
											</g>
										</g>
									</g>
								</g>
							</g>
						</g>
						<g>
							<g>
								<g>
									<g>
										<g>
											<g>
												<g>
													<path style="fill:#263238;" d="M395.38,88.79c0.13,0.35,1.42,0.19,2.94,0.37c1.52,0.15,2.75,0.6,2.95,0.28               c0.09-0.15-0.12-0.48-0.62-0.82c-0.49-0.34-1.28-0.66-2.19-0.77c-0.91-0.1-1.75,0.05-2.3,0.27               C395.61,88.34,395.33,88.62,395.38,88.79z"></path>
												</g>
											</g>
										</g>
									</g>
								</g>
							</g>
						</g>
						<g>
							<g>
								<g>
									<g>
										<g>
											<g>
												<g>
													<path style="fill:#263238;" d="M383.7,87.06c0.23,0.29,1.12-0.01,2.19-0.03c1.07-0.05,1.98,0.2,2.19-0.11               c0.09-0.15-0.05-0.44-0.45-0.72c-0.39-0.28-1.05-0.5-1.78-0.48c-0.74,0.02-1.38,0.29-1.75,0.59               C383.73,86.62,383.6,86.92,383.7,87.06z"></path>
												</g>
											</g>
										</g>
									</g>
								</g>
							</g>
						</g>
					</g>
				</g>
				<g>
					<g>
						<g>
							<g>
								<path style="fill:#263238;" d="M395.93,71.75c-3.42,0.11-6.02,1.16-9.02,2.8c-3,1.64-5.52,4.36-6.44,7.65          c-0.2,0.7-0.31,1.5,0.08,2.12c0.51,0.82,1.7,0.95,2.58,0.56c0.87-0.4,1.5-1.18,2.1-1.93c0.44,1.72,2.15,3.03,3.93,3.01          c1.78-0.02,3.46-1.37,3.87-3.1c0.01,1.8,1.82,3.29,3.62,3.23c1.8-0.06,3.4-1.46,4-3.16c0.34,1.6,0.69,3.26,1.65,4.59          c0.96,1.33,2.7,2.24,4.25,1.73c-0.22,1.4-0.44,2.87,0.06,4.2c0.5,1.33,2.49,23.92,3.83,23.46c1.3-0.45,1.29-23.5,1.59-24.84          c0.59-2.59,1.09-5.22,1.01-7.87c-0.08-2.65-0.79-5.35-2.42-7.44c-1.68-2.17-4.23-3.54-6.88-4.24          c-2.65-0.7-5.43-0.78-8.17-0.74"></path>
							</g>
						</g>
					</g>
				</g>
			</g>
		</g>
		<g>
			<g>
				<path style="fill:#263238;" d="M414.75,112.89c0.01,0.02-0.09,0.06-0.29,0.13c-0.19,0.07-0.49,0.15-0.88,0.21      c-0.77,0.12-1.95,0.12-3.3-0.34c-1.33-0.43-2.87-1.4-3.86-3.03c-1.02-1.61-1.41-3.75-1.24-5.88c0.16-2.14,0.65-4.1,0.88-5.91      c0.25-1.8,0.37-3.44,0.42-4.82c0.04-1.38,0.03-2.5,0.01-3.27c-0.02-0.77-0.03-1.2,0.01-1.21c0.03,0,0.11,0.42,0.19,1.19      c0.08,0.77,0.15,1.9,0.16,3.29c0,1.39-0.08,3.05-0.31,4.88c-0.21,1.83-0.69,3.8-0.84,5.88c-0.16,2.07,0.19,4.08,1.13,5.6      c0.91,1.54,2.31,2.47,3.58,2.93c1.27,0.47,2.4,0.54,3.15,0.48C414.33,112.97,414.74,112.84,414.75,112.89z"></path>
			</g>
		</g>
		<g>
			<g>
				<path style="fill:#455A64;" d="M392.62,70.54c0.04-0.02,0.46,0.79,0.49,2.23c0.04,1.41-0.45,3.49-2,5.11      c-1.56,1.61-3.62,2.18-5.03,2.19c-1.44,0.03-2.27-0.36-2.25-0.4c0.02-0.09,0.86,0.16,2.23,0.03c1.34-0.11,3.24-0.7,4.68-2.19      c1.43-1.49,1.95-3.41,2.01-4.75C392.81,71.4,392.53,70.56,392.62,70.54z"></path>
			</g>
		</g>
		<g>
			<g>
				<path style="fill:#455A64;" d="M394.02,81.6c0.05,0.01-0.07,0.65-0.78,1.34c-0.7,0.69-2.03,1.3-3.54,1.21      c-1.5-0.1-2.73-0.72-3.53-1.21c-0.81-0.5-1.24-0.9-1.2-0.95c0.04-0.06,0.55,0.22,1.38,0.63c0.83,0.4,2.01,0.93,3.39,1.02      c1.37,0.08,2.58-0.41,3.27-0.97C393.7,82.11,393.94,81.56,394.02,81.6z"></path>
			</g>
		</g>
		<g>
			<g>
				<path style="fill:#455A64;" d="M416.65,78.73c0.06,0.01,0.07,0.99-0.18,2.57c-0.25,1.56-0.79,3.79-2.3,5.79      c-1.53,2-3.77,2.97-5.38,3.06c-0.81,0.06-1.47-0.05-1.9-0.19c-0.43-0.14-0.65-0.26-0.64-0.29c0.02-0.1,0.96,0.32,2.5,0.11      c1.51-0.18,3.57-1.15,5.01-3.01c1.43-1.88,2.01-4.02,2.35-5.54C416.44,79.69,416.57,78.72,416.65,78.73z"></path>
			</g>
		</g>
		<g>
			<g>
				<path style="fill:#455A64;" d="M418.37,83.28c0.03,0,0.1,0.28,0.15,0.79c0.05,0.51,0.1,1.26,0.05,2.19      c-0.09,1.82-0.58,4.53-2.5,6.74c-0.95,1.09-2.13,1.89-3.33,2.27c-1.2,0.39-2.37,0.38-3.29,0.2c-0.93-0.19-1.62-0.55-2.04-0.86      c-0.43-0.31-0.6-0.54-0.59-0.56c0.05-0.09,0.9,0.78,2.69,1.06c0.88,0.13,1.97,0.09,3.07-0.29c1.11-0.38,2.2-1.14,3.09-2.16      c1.82-2.08,2.35-4.64,2.53-6.42C418.37,84.43,418.28,83.29,418.37,83.28z"></path>
			</g>
		</g>
	</g>
	<g>
		<g>
			<g>
				<polygon style="fill:#484574;" points="286.56,204.15 268.41,245.66 293.4,245.66 311.2,203.82     "></polygon>
			</g>
		</g>
		<g>
			<g>
				<g>
					<g>
						<path style="fill:#CECBFF;" d="M273.36,160.02l20.48,40.26h64.56l-2.61-5.26l-18.7-0.56l-15.24-33.94        c-0.95-2.11-3.05-3.47-5.36-3.47h-41.3C273.65,157.05,272.66,158.66,273.36,160.02z"></path>
					</g>
				</g>
			</g>
			<g>
				<g>
					<g>
						<path style="fill:#263238;" d="M305.69,178.05c0,1.36-1.11,2.47-2.47,2.47c-1.36,0-2.47-1.11-2.47-2.47        c0-1.36,1.11-2.47,2.47-2.47C304.58,175.58,305.69,176.68,305.69,178.05z"></path>
					</g>
				</g>
			</g>
		</g>
		<g>
			<g>
				<rect x="286.35" y="200.34" style="fill:#484574;" width="78.92" height="3.85"></rect>
			</g>
		</g>
		<g>
			<g>
				<polygon style="fill:#484574;" points="340.97,202.27 364.97,245.7 376.45,245.7 378.95,240.73 381.25,235.5 365.27,204.19           "></polygon>
			</g>
		</g>
	</g>
	<g>
		<g>
			<path style="fill:#E10454;" d="M382.68,127.81c0,0-13.94,4.91-16.94,20.51l14.72,7.34L382.68,127.81z"></path>
		</g>
		<g>
			<path style="fill:#E10454;" d="M382.68,127.81c0,0-9.76,21.86-9.38,33.79c0.13,4.16,2.86,14.97,2.86,14.97l5.06,26.87     c0,0,38.81-5.26,39.67-5.26c0.86,0-1.3-22.04-1.3-22.04l6.33-42.37c0,0-2.9-5.77-15.98-7.77     C402.07,124.8,382.68,127.81,382.68,127.81z"></path>
		</g>
		<g>
			<g>
				<path style="fill:#263238;" d="M379.04,140.5c0.09,0.05-0.94,1.67-2.16,4.5c-0.62,1.41-1.24,3.13-1.8,5.08      c-0.53,1.96-1,4.14-1.27,6.47c-0.25,2.33-0.29,4.56-0.21,6.59c0.12,2.03,0.33,3.85,0.62,5.35c0.56,3.02,1.2,4.83,1.1,4.86      c-0.03,0.01-0.21-0.43-0.49-1.25c-0.15-0.41-0.32-0.91-0.47-1.51c-0.16-0.6-0.36-1.27-0.5-2.03c-0.34-1.51-0.6-3.35-0.74-5.4      c-0.11-2.05-0.09-4.32,0.17-6.68c0.28-2.36,0.76-4.57,1.33-6.54c0.6-1.97,1.26-3.7,1.93-5.1c0.3-0.71,0.66-1.32,0.94-1.87      c0.28-0.55,0.56-1,0.79-1.37C378.74,140.88,379.01,140.48,379.04,140.5z"></path>
			</g>
		</g>
		<g>
			<g>
				<path style="fill:none;stroke:#4F595E;stroke-width:0.05;stroke-miterlimit:10;" d="M404.27,171.57"></path>
			</g>
		</g>
		<g>
			<g>
				<path style="fill:none;stroke:#4F595E;stroke-width:0.05;stroke-miterlimit:10;" d="M391.18,162.48"></path>
			</g>
		</g>
		<g>
			<path style="fill:#E10454;" d="M387.4,127.61l0.57-5.98c0.12-1.29,1.2-2.29,2.5-2.31l19.15-0.28c1.21-0.02,2.22,0.91,2.31,2.11     l0.49,6.46c0,0-2.06,5.07-7.69,7.8c-5.63,2.73-14.38,2.82-14.38,2.82L387.4,127.61z"></path>
		</g>
		<g>
			<g>
				<path style="fill:#263238;" d="M392.41,119.36c0.06,0.06-0.22,0.39-0.34,1.04c-0.14,0.65-0.04,1.59,0.04,2.66      c0.14,2.13,0.15,3.87,0,3.88c-0.14,0.01-0.38-1.71-0.52-3.84c-0.08-1.05-0.13-2.07,0.13-2.79      C391.95,119.58,392.38,119.31,392.41,119.36z"></path>
			</g>
		</g>
		<g>
			<g>
				<path style="fill:#263238;" d="M397,126.78c-0.14,0.01-0.36-1.68-0.48-3.76c-0.05-1.04-0.12-1.98-0.02-2.7      c0.1-0.72,0.4-1.09,0.45-1.05c0.07,0.04-0.09,0.42-0.08,1.08c0,0.65,0.13,1.6,0.17,2.64C397.16,125.07,397.14,126.77,397,126.78      z"></path>
			</g>
		</g>
		<g>
			<g>
				<path style="fill:#263238;" d="M402.75,126.62c-0.14,0.02-0.48-1.62-0.75-3.66c-0.27-2.04-0.37-3.71-0.23-3.73      c0.14-0.02,0.48,1.62,0.75,3.66C402.79,124.93,402.89,126.6,402.75,126.62z"></path>
			</g>
		</g>
		<g>
			<g>
				<path style="fill:#263238;" d="M407.71,127.04c-0.14,0.02-0.55-1.77-0.72-4.03c-0.18-2.26-0.04-4.09,0.1-4.09      c0.15,0,0.25,1.82,0.42,4.05C407.68,125.21,407.86,127.02,407.71,127.04z"></path>
			</g>
		</g>
		<g style="opacity:0.3;">
			<g>
				<path d="M411.51,149.91c-0.76,6.74-0.26,18.33,2.12,24.68l11.18-18.47L411.51,149.91z"></path>
			</g>
		</g>
		<g>
			<path style="fill:#E10454;" d="M424.88,132.41l0.05,0.06c3.17,3.33,5.49,7.37,6.77,11.79l2.06,9.39l-22,3.41     c0,0-1.89-5.23-0.84-12.3S424.88,132.41,424.88,132.41z"></path>
		</g>
		<g>
			<g>
				<path style="fill:#263238;" d="M433.76,153.65c0,0.02-0.15,0.05-0.43,0.11c-0.34,0.06-0.76,0.14-1.27,0.23      c-1.18,0.19-2.76,0.45-4.71,0.77c-4.08,0.62-9.64,1.47-15.94,2.43l-0.28,0.04l-0.01-0.29c-0.05-1.33-0.09-2.71-0.11-4.12      c-0.05-3.7-0.05-7.22,0.21-10.43c0.19-3.23,1.24-6.06,2.56-8.12c1.32-2.08,2.92-3.35,4.1-4.02c0.59-0.34,1.08-0.55,1.42-0.66      c0.34-0.12,0.52-0.17,0.52-0.15c0.02,0.05-0.7,0.28-1.84,0.99c-1.13,0.71-2.64,2-3.89,4.05c-1.25,2.04-2.23,4.79-2.39,7.96      c-0.23,3.18-0.22,6.7-0.17,10.38c0.04,1.41,0.07,2.79,0.11,4.11l-0.29-0.24c6.31-0.89,11.88-1.68,15.96-2.25      c1.95-0.25,3.55-0.46,4.73-0.62c0.51-0.06,0.93-0.1,1.28-0.14C433.6,153.64,433.76,153.63,433.76,153.65z"></path>
			</g>
		</g>
		<g>
			<g>
				<path style="fill:#FAFAFA;" d="M387.29,139.86c-0.1,0.11-1.47-0.95-3.06-2.37c-1.6-1.42-2.81-2.65-2.72-2.76      c0.1-0.11,1.47,0.95,3.06,2.37C386.17,138.52,387.39,139.75,387.29,139.86z"></path>
			</g>
		</g>
		<g>
			<g>
				<path style="fill:#FAFAFA;" d="M384.32,151.43c0.08,0.12-1.13,1.01-2.7,1.98c-1.57,0.97-2.89,1.66-2.97,1.54      c-0.08-0.12,1.13-1.01,2.7-1.98C382.92,152,384.25,151.31,384.32,151.43z"></path>
			</g>
		</g>
		<g>
			<g>
				<path style="fill:#FAFAFA;" d="M396.59,154.28c-0.14-0.01-0.14-1.92,0-4.28c0.14-2.35,0.37-4.26,0.52-4.25      c0.14,0.01,0.14,1.92,0,4.28C396.96,152.39,396.73,154.29,396.59,154.28z"></path>
			</g>
		</g>
		<g>
			<g>
				<path style="fill:#FAFAFA;" d="M408.52,165.85c-0.12,0.09-1.26-1.35-2.78-3.01c-1.52-1.67-2.85-2.93-2.75-3.04      c0.09-0.11,1.59,1,3.13,2.69C407.67,164.18,408.63,165.78,408.52,165.85z"></path>
			</g>
		</g>
		<g>
			<g>
				<path style="fill:#FAFAFA;" d="M410.2,141.66c0.08,0.12-1.23,1.14-2.92,2.27c-1.69,1.14-3.13,1.96-3.21,1.84      s1.23-1.14,2.92-2.27C408.69,142.37,410.12,141.54,410.2,141.66z"></path>
			</g>
		</g>
		<g>
			<g>
				<path style="fill:#FAFAFA;" d="M399.42,132.91c0.08,0.12-1.35,1.17-3.18,2.35c-1.84,1.18-3.39,2.03-3.46,1.91      c-0.08-0.12,1.35-1.17,3.18-2.35C397.8,133.65,399.35,132.79,399.42,132.91z"></path>
			</g>
		</g>
		<g>
			<g>
				<path style="fill:#FAFAFA;" d="M409.14,136.39c-0.13,0.05-0.81-1.36-1.52-3.14c-0.7-1.79-1.17-3.28-1.03-3.34      c0.13-0.05,0.81,1.36,1.52,3.15C408.81,134.84,409.28,136.34,409.14,136.39z"></path>
			</g>
		</g>
		<g>
			<g>
				<path style="fill:#FAFAFA;" d="M422.51,140.78c-0.1,0.1-1.1-0.73-2.23-1.86c-1.13-1.13-1.97-2.12-1.87-2.23      c0.1-0.1,1.1,0.73,2.23,1.86C421.78,139.68,422.61,140.67,422.51,140.78z"></path>
			</g>
		</g>
		<g>
			<g>
				<path style="fill:#FAFAFA;" d="M417.03,150.53c-0.14,0.01-0.34-1.36-0.43-3.05c-0.09-1.7-0.05-3.08,0.09-3.08      c0.14-0.01,0.34,1.36,0.43,3.05C417.21,149.14,417.17,150.52,417.03,150.53z"></path>
			</g>
		</g>
		<g>
			<g>
				<path style="fill:#FAFAFA;" d="M428.11,148.51c-0.01,0.14-1.58,0.18-3.5-0.12c-1.92-0.29-3.41-0.8-3.37-0.93      c0.04-0.14,1.56,0.13,3.45,0.42C426.58,148.17,428.12,148.36,428.11,148.51z"></path>
			</g>
		</g>
		<g>
			<g>
				<path style="fill:#FAFAFA;" d="M383.31,168.66c-0.13,0.06-1.03-1.57-2.01-3.65c-0.98-2.08-1.67-3.81-1.54-3.87      s1.03,1.57,2.01,3.65C382.75,166.86,383.44,168.6,383.31,168.66z"></path>
			</g>
		</g>
		<g>
			<g>
				<path style="fill:#FAFAFA;" d="M397.95,184.44c-0.12,0.08-1.21-1.22-2.43-2.91c-1.23-1.69-2.13-3.13-2.01-3.22      c0.12-0.08,1.21,1.22,2.43,2.91C397.16,182.91,398.07,184.35,397.95,184.44z"></path>
			</g>
		</g>
		<g>
			<g>
				<path style="fill:#FAFAFA;" d="M410.14,177.82c0.05,0.13-1.43,0.83-3.32,1.56c-1.89,0.73-3.46,1.21-3.51,1.07      c-0.05-0.13,1.43-0.83,3.32-1.56C408.52,178.17,410.09,177.68,410.14,177.82z"></path>
			</g>
		</g>
		<g>
			<g>
				<path style="fill:#FAFAFA;" d="M380.23,190.6c-0.13-0.06,0.3-1.29,0.96-2.75c0.66-1.46,1.3-2.59,1.43-2.53      c0.13,0.06-0.3,1.29-0.96,2.75C381,189.53,380.36,190.66,380.23,190.6z"></path>
			</g>
		</g>
		<g>
			<g>
				<path style="fill:#FAFAFA;" d="M370.82,145.41c-0.12,0.06-0.73-1.04-0.97-2.56c-0.25-1.51-0.02-2.75,0.11-2.73      c0.15,0.01,0.16,1.21,0.4,2.65C370.59,144.21,370.96,145.35,370.82,145.41z"></path>
			</g>
		</g>
		<g>
			<g>
				<path style="fill:#FAFAFA;" d="M387.53,180.48c-0.07,0.13-1.4-0.48-2.97-1.35c-1.57-0.87-2.78-1.68-2.71-1.81      c0.07-0.13,1.4,0.48,2.97,1.35C386.38,179.55,387.59,180.36,387.53,180.48z"></path>
			</g>
		</g>
		<g>
			<g>
				<path style="fill:#FAFAFA;" d="M397.18,163.82c0.1,0.11-1.09,1.34-2.66,2.76c-1.56,1.42-2.91,2.48-3.01,2.37      c-0.1-0.11,1.09-1.34,2.66-2.76C395.74,164.77,397.09,163.71,397.18,163.82z"></path>
			</g>
		</g>
		<g style="opacity:0.3;">
			<g>
				<path d="M391.27,163.51c0.63,3.44,1.94,6.87,4.45,9.3s6.37,3.67,9.62,2.39c0.68-0.27,1.39-0.72,1.55-1.43      c0.19-0.83-0.48-1.65-1.26-1.98c-0.78-0.33-1.66-0.3-2.51-0.35c-4.84-0.27-9.43-3.24-11.66-7.54"></path>
			</g>
		</g>
		<g>
			<g>
				<path style="fill:#263238;" d="M404.27,171.57c0,0.04-0.24,0.08-0.67,0.12c-0.44,0.05-1.08,0.04-1.86-0.04      c-0.78-0.08-1.71-0.29-2.69-0.63c-0.98-0.37-2.01-0.87-3.01-1.56c-0.99-0.7-1.83-1.49-2.51-2.28c-0.67-0.8-1.19-1.59-1.53-2.3      c-0.35-0.7-0.58-1.3-0.69-1.73c-0.11-0.42-0.16-0.66-0.12-0.67c0.09-0.03,0.37,0.9,1.13,2.22c0.38,0.67,0.91,1.4,1.57,2.16      c0.68,0.74,1.5,1.5,2.45,2.17c0.96,0.66,1.95,1.16,2.88,1.54c0.94,0.35,1.82,0.6,2.58,0.72      C403.3,171.54,404.27,171.47,404.27,171.57z"></path>
			</g>
		</g>
	</g>
	<g>
		<g>
			<g>
				<g>
					<path style="fill:#FFBE9D;" d="M349.22,187.69l14.49-1.74l10.21,6.69l39.03-9.36l0.92-26.72l17.33-2.29v32.35       c-0.17,8.23-7.01,14.74-15.24,14.52l-57.17-1.58l-2.43-4.87l-12.27-0.36L349.22,187.69z"></path>
				</g>
			</g>
		</g>
		<g>
			<g>
				<g>
					<g>
						<path style="fill:#EB996E;" d="M412.45,183.28c0,0.02-0.25,0.09-0.73,0.22c-0.52,0.14-1.23,0.32-2.12,0.55        c-1.89,0.47-4.56,1.14-7.83,1.95c-6.66,1.61-15.79,3.83-25.88,6.27c-0.81,0.19-1.61,0.39-2.41,0.58l-0.1,0.02l-0.08-0.05        c-3.61-2.37-7.05-4.63-10.2-6.71l0.14,0.03c-5.73,0.66-10.69,1.24-14.49,1.67l0.1-0.05c-1.62,2.06-2.91,3.7-3.83,4.86        c-0.43,0.54-0.77,0.96-1.03,1.28c-0.24,0.29-0.37,0.43-0.38,0.42c-0.01-0.01,0.1-0.17,0.31-0.47        c0.24-0.33,0.57-0.77,0.97-1.32c0.89-1.18,2.15-2.85,3.72-4.94l0.04-0.05l0.06-0.01c3.8-0.47,8.75-1.09,14.48-1.81l0.08-0.01        l0.06,0.04c3.16,2.06,6.6,4.31,10.22,6.68l-0.18-0.03c0.79-0.19,1.6-0.38,2.41-0.58c10.1-2.39,19.24-4.56,25.91-6.14        c3.29-0.76,5.97-1.37,7.87-1.81c0.9-0.2,1.62-0.35,2.14-0.47C412.18,183.31,412.44,183.27,412.45,183.28z"></path>
					</g>
				</g>
			</g>
		</g>
		<g>
			<g>
				<g>
					<g>
						<path style="fill:#EB996E;" d="M357.13,191.84c0,0.13-2.52,0.23-5.63,0.23c-0.35,0-0.69,0-1.03,0l0.14-0.05        c-2.01,1.68-3.58,2.89-3.65,2.81c-0.07-0.08,1.38-1.44,3.36-3.15l0.06-0.05l0.08,0c0.33,0,0.68,0,1.03,0        C354.61,191.61,357.13,191.71,357.13,191.84z"></path>
					</g>
				</g>
			</g>
		</g>
		<g>
			<g>
				<g>
					<g>
						<path style="fill:#EB996E;" d="M419.64,187.65c-0.12,0.07-0.87-1.76-2.84-2.97c-1.95-1.25-3.92-1.14-3.91-1.28        c-0.01-0.05,0.47-0.16,1.26-0.1c0.78,0.06,1.86,0.35,2.89,0.99c1.02,0.65,1.75,1.5,2.15,2.17        C419.58,187.15,419.68,187.63,419.64,187.65z"></path>
					</g>
				</g>
			</g>
		</g>
	</g>
</g>
<g id="Plant">
	<g>
		<g>
			<g>
				<rect x="104.25" y="401.27" style="fill:#5980A6;" width="65.3" height="8.97"></rect>
			</g>
			<g>
				<path style="fill:#263238;" d="M169.66,410.36h-65.52v-9.2h65.52V410.36z M104.36,410.13h65.08v-8.75h-65.08V410.13z"></path>
			</g>
		</g>
		<g>
			<g>
				<polygon style="fill:#5980A6;" points="110.31,407.26 119.71,453.63 154.48,453.63 163.57,410.25     "></polygon>
			</g>
		</g>
		<g>
			<g>
				<polygon style="fill:#3E5974;" points="110.31,449.24 115.32,456.14 157.59,456.14 163.57,449.24     "></polygon>
			</g>
		</g>
		<g>
			<g>
				<g>
					<path style="fill:#263238;" d="M134.45,408.61c-0.13,0-0.29-21.48-0.37-47.98c-0.07-26.5-0.03-47.98,0.1-47.98       c0.13,0,0.29,21.48,0.37,47.98C134.62,387.13,134.58,408.61,134.45,408.61z"></path>
				</g>
			</g>
		</g>
		<g>
			<g>
				<g>
					<path style="fill:#263238;" d="M149,354.85c0.01,0.01-0.05,0.18-0.18,0.5c-0.15,0.36-0.35,0.82-0.58,1.39       c-0.13,0.31-0.27,0.64-0.43,1c-0.14,0.38-0.28,0.79-0.43,1.22c-0.16,0.44-0.33,0.91-0.5,1.4c-0.17,0.5-0.31,1.04-0.48,1.6       c-0.71,2.23-1.28,4.96-1.83,8c-0.48,3.05-0.83,6.43-1.01,10c-0.32,7.13,0.09,13.6,0.52,18.26c0.21,2.33,0.42,4.22,0.58,5.52       c0.07,0.61,0.12,1.11,0.16,1.5c0.03,0.34,0.04,0.53,0.03,0.53c-0.02,0-0.06-0.17-0.12-0.51c-0.07-0.39-0.15-0.88-0.25-1.49       c-0.21-1.29-0.47-3.18-0.72-5.51c-0.52-4.66-0.97-11.15-0.65-18.32c0.18-3.58,0.55-6.98,1.05-10.05       c0.57-3.05,1.18-5.79,1.93-8.02c0.18-0.56,0.33-1.1,0.52-1.59c0.19-0.49,0.37-0.96,0.54-1.39c0.17-0.43,0.33-0.84,0.47-1.21       c0.16-0.37,0.33-0.69,0.47-0.99c0.27-0.55,0.49-1,0.66-1.36C148.89,355,148.98,354.85,149,354.85z"></path>
				</g>
			</g>
		</g>
		<g>
			<g>
				<g>
					<path style="fill:#263238;" d="M147.33,337.48c0.01,0.01-0.06,0.25-0.21,0.71c-0.17,0.5-0.4,1.16-0.68,2       c-0.15,0.44-0.32,0.92-0.5,1.44c-0.16,0.54-0.34,1.11-0.53,1.73c-0.38,1.24-0.82,2.66-1.22,4.25       c-0.21,0.79-0.43,1.62-0.66,2.48c-0.2,0.87-0.4,1.78-0.61,2.72c-0.46,1.87-0.79,3.9-1.21,6.02c-0.72,4.27-1.35,8.98-1.79,13.96       c-0.41,4.98-0.59,9.74-0.66,14.07c-0.01,4.33,0.04,8.23,0.22,11.5c0.06,1.64,0.16,3.11,0.25,4.41c0.07,1.3,0.16,2.42,0.24,3.33       c0.07,0.88,0.12,1.58,0.16,2.1c0.03,0.48,0.04,0.74,0.02,0.74c-0.02,0-0.06-0.25-0.12-0.73c-0.06-0.52-0.14-1.22-0.25-2.1       c-0.11-0.91-0.22-2.03-0.32-3.33c-0.11-1.3-0.24-2.78-0.32-4.42c-0.22-3.27-0.31-7.18-0.32-11.52       c0.04-4.34,0.21-9.11,0.62-14.1c0.44-4.99,1.09-9.72,1.83-13.99c0.43-2.13,0.78-4.16,1.25-6.03c0.22-0.94,0.43-1.85,0.64-2.72       c0.24-0.86,0.47-1.69,0.69-2.48c0.41-1.59,0.88-3,1.29-4.24c0.2-0.62,0.39-1.19,0.56-1.73c0.2-0.52,0.38-1,0.54-1.43       c0.32-0.82,0.57-1.48,0.76-1.97C147.21,337.7,147.31,337.47,147.33,337.48z"></path>
				</g>
			</g>
		</g>
		<g>
			<g>
				<g>
					<path style="fill:#263238;" d="M130.32,412.41c-0.01,0-0.02-0.08-0.04-0.25c-0.02-0.19-0.04-0.44-0.06-0.74       c-0.05-0.68-0.11-1.64-0.19-2.84c-0.16-2.51-0.38-6.07-0.65-10.46c-0.57-8.83-1.39-21.04-2.87-34.46       c-0.76-6.71-1.64-13.08-2.56-18.86c-0.49-2.88-0.93-5.63-1.43-8.18c-0.46-2.56-0.95-4.93-1.41-7.1       c-0.43-2.17-0.91-4.11-1.29-5.83c-0.38-1.72-0.74-3.19-1.05-4.38c-0.29-1.18-0.51-2.1-0.68-2.77c-0.07-0.3-0.12-0.53-0.17-0.72       c-0.03-0.16-0.05-0.25-0.04-0.25c0.01,0,0.04,0.08,0.09,0.24c0.05,0.19,0.12,0.42,0.21,0.71c0.18,0.66,0.44,1.58,0.76,2.75       c0.33,1.19,0.73,2.66,1.13,4.37c0.41,1.71,0.91,3.65,1.36,5.82c0.48,2.16,0.99,4.53,1.47,7.1c0.52,2.55,0.97,5.3,1.47,8.18       c0.94,5.78,1.83,12.16,2.6,18.88c1.49,13.44,2.26,25.65,2.74,34.49c0.24,4.42,0.41,8,0.51,10.47c0.04,1.21,0.08,2.16,0.1,2.85       c0.01,0.3,0.01,0.55,0.02,0.74C130.33,412.33,130.33,412.41,130.32,412.41z"></path>
				</g>
			</g>
		</g>
		<g>
			<g>
				<path style="fill:#3F9D03;" d="M133.92,322.98c-0.28-3.04-3.36-5.34-6.42-5.37c-3.06-0.03-5.91,1.8-7.77,4.22      c-1.87,2.42-2.9,5.37-3.74,8.31c-2.06,7.17-3.18,14.7-2.3,22.11c0.88,7.41,3.89,14.7,9.2,19.93c0.86,0.85,1.98,1.7,3.17,1.45      c0.65-0.14,1.18-0.59,1.67-1.03c10.44-9.43,16.47-23.56,16.06-37.63c-0.08-2.82-0.45-5.75-2.01-8.1      C140.21,324.53,136.57,322.04,133.92,322.98"></path>
			</g>
		</g>
		<g>
			<g>
				<g>
					<path style="fill:#0F4C81;" d="M111.09,298.6c-1.44,2.6-2.87,5.2-4.31,7.8c-0.1,0.18-0.23,0.39-0.44,0.4       c-0.23,0.02-0.4-0.19-0.52-0.39c-3.79-5.82-7.59-11.64-11.38-17.47l2.62-1.49L111.09,298.6z"></path>
				</g>
			</g>
			<g style="opacity:0.2;">
				<g>
					<g>
						<path style="fill:#3F9D03;" d="M111.09,298.6c-1.44,2.6-2.87,5.2-4.31,7.8c-0.1,0.18-0.23,0.39-0.44,0.4        c-0.23,0.02-0.4-0.19-0.52-0.39c-3.79-5.82-7.59-11.64-11.38-17.47l2.62-1.49L111.09,298.6z"></path>
					</g>
				</g>
			</g>
			<g>
				<g>
					<path style="fill:#3F9D03;" d="M134.18,312.65c-12.94-7.64-25.88-15.27-38.82-22.91c-0.4-0.23-0.83-0.51-0.95-0.95       c-0.15-0.57,0.28-1.13,0.69-1.56c5.34-5.51,13.1-8.7,20.75-8.15c7.65,0.55,15.01,4.97,18.76,11.67       C138.35,297.44,138.48,306.3,134.18,312.65"></path>
				</g>
			</g>
			<g>
				<g>
					<g>
						<path style="fill:#263238;" d="M100.95,282.43c0-0.02,0.17-0.04,0.51-0.06c0.33-0.02,0.83-0.08,1.47-0.07        c1.28-0.03,3.13,0.05,5.39,0.43c2.26,0.37,4.9,1.1,7.67,2.33c2.77,1.23,5.63,3.01,8.23,5.34c2.59,2.36,4.64,5.03,6.14,7.66        c1.5,2.63,2.49,5.19,3.08,7.4c0.6,2.21,0.87,4.05,0.96,5.32c0.07,0.63,0.06,1.13,0.08,1.47c0.01,0.34,0,0.51-0.01,0.51        c-0.04,0-0.09-0.7-0.24-1.96c-0.15-1.26-0.47-3.07-1.1-5.25c-1.23-4.32-4.08-10.15-9.22-14.81        c-5.14-4.65-11.23-6.9-15.65-7.69c-2.23-0.41-4.06-0.55-5.33-0.57C101.66,282.45,100.95,282.47,100.95,282.43z"></path>
					</g>
				</g>
			</g>
			<g>
				<g>
					<g>
						<path style="fill:#263238;" d="M128.92,296.84c0.02,0.06-0.73,0.4-1.96,0.89c-1.24,0.49-2.97,1.11-4.9,1.73        c-1.93,0.61-3.71,1.1-5,1.42c-1.29,0.32-2.1,0.46-2.12,0.4c-0.02-0.06,0.76-0.32,2.03-0.72c1.43-0.45,3.1-0.97,4.94-1.54        c1.84-0.59,3.5-1.13,4.93-1.59C128.11,297.02,128.9,296.78,128.92,296.84z"></path>
					</g>
				</g>
			</g>
			<g>
				<g>
					<g>
						<path style="fill:#263238;" d="M122.81,280.42c0.12-0.01,0.4,1.92,0.46,4.33c0.06,2.41-0.11,4.35-0.24,4.35        c-0.13,0-0.16-1.95-0.23-4.34C122.75,282.37,122.68,280.43,122.81,280.42z"></path>
					</g>
				</g>
			</g>
			<g>
				<g>
					<g>
						<path style="fill:#263238;" d="M95.02,289.31c-0.02-0.06,1.06-0.45,2.82-0.99c1.76-0.54,4.22-1.23,6.96-1.89        c2.74-0.66,5.24-1.17,7.06-1.48c1.82-0.32,2.95-0.46,2.96-0.4c0.01,0.07-1.1,0.32-2.9,0.72c-1.8,0.4-4.28,0.96-7.01,1.61        c-2.73,0.66-5.19,1.29-6.98,1.76C96.14,289.09,95.04,289.37,95.02,289.31z"></path>
					</g>
				</g>
			</g>
		</g>
		<g>
			<g>
				<g>
					<path style="fill:#3F9D03;" d="M116.28,315.78c-3.34-2.53-6.87-3.03-11.06-2.86c-4.19,0.17-8.26,1.44-12.1,3.12       c-6.55,2.87-12.7,7.09-16.61,13.07c-3.91,5.98-5.27,13.9-2.34,20.42c0.29,0.65,0.67,1.33,1.33,1.61       c0.69,0.3,1.48,0.06,2.19-0.17c7.45-2.43,14.94-4.88,21.79-8.68c6.85-3.8,13.08-9.09,16.75-16.01       c0.88-1.66,1.62-3.44,1.76-5.31C118.13,319.09,117.61,317.1,116.28,315.78"></path>
				</g>
			</g>
			<g>
				<g>
					<g>
						<path style="fill:#263238;" d="M116.34,314.99c0,0.02-0.18,0.09-0.54,0.22c-0.4,0.14-0.92,0.32-1.56,0.54        c-0.34,0.11-0.72,0.24-1.13,0.38c-0.41,0.15-0.85,0.33-1.32,0.51c-0.94,0.38-2.04,0.76-3.19,1.32        c-0.58,0.27-1.19,0.54-1.83,0.83c-0.63,0.29-1.27,0.65-1.93,0.99c-1.35,0.66-2.72,1.51-4.17,2.37        c-2.85,1.8-5.88,3.98-8.82,6.54c-2.92,2.59-5.46,5.31-7.61,7.91c-1.04,1.33-2.05,2.58-2.88,3.83        c-0.42,0.62-0.86,1.2-1.23,1.79c-0.37,0.59-0.72,1.16-1.06,1.7c-0.7,1.07-1.22,2.11-1.72,2.99c-0.24,0.45-0.48,0.86-0.68,1.24        c-0.19,0.39-0.36,0.75-0.52,1.07c-0.3,0.61-0.54,1.1-0.73,1.48c-0.17,0.34-0.27,0.51-0.28,0.5c-0.01-0.01,0.05-0.19,0.2-0.54        c0.17-0.39,0.39-0.9,0.65-1.52c0.15-0.33,0.31-0.7,0.48-1.09c0.19-0.39,0.41-0.81,0.65-1.27c0.48-0.9,0.98-1.95,1.66-3.04        c0.33-0.55,0.68-1.13,1.04-1.73c0.36-0.6,0.8-1.19,1.22-1.82c0.82-1.27,1.83-2.53,2.86-3.88c2.15-2.63,4.7-5.38,7.64-7.99        c2.96-2.58,6.01-4.76,8.9-6.55c1.47-0.85,2.85-1.69,4.22-2.35c0.68-0.34,1.32-0.69,1.96-0.97c0.64-0.28,1.26-0.55,1.85-0.81        c1.17-0.54,2.27-0.9,3.23-1.26c0.48-0.17,0.92-0.34,1.34-0.48c0.41-0.12,0.8-0.24,1.15-0.34c0.65-0.19,1.18-0.34,1.59-0.45        C116.15,315.02,116.34,314.98,116.34,314.99z"></path>
					</g>
				</g>
			</g>
			<g>
				<g>
					<g>
						<path style="fill:#263238;" d="M90.26,329.12c0.04,0.12-3.6,1.3-8.12,2.62c-4.52,1.32-8.22,2.29-8.25,2.17        c-0.04-0.12,3.6-1.29,8.12-2.62C86.53,329.97,90.22,328.99,90.26,329.12z"></path>
					</g>
				</g>
			</g>
			<g>
				<g>
					<g>
						<path style="fill:#263238;" d="M89.92,347.04c-0.06,0-0.14-0.97-0.18-2.53c-0.04-1.56-0.05-3.73,0.02-6.11        c0.07-2.39,0.19-4.55,0.32-6.11c0.13-1.56,0.26-2.52,0.32-2.52c0.07,0,0.05,0.97,0.01,2.54c-0.05,1.71-0.12,3.8-0.19,6.1        c-0.06,2.3-0.11,4.39-0.15,6.1C90.03,346.07,89.99,347.04,89.92,347.04z"></path>
					</g>
				</g>
			</g>
			<g>
				<g>
					<g>
						<path style="fill:#263238;" d="M105.28,339.22c-0.13,0.01-0.54-4.39-0.91-9.82c-0.38-5.43-0.58-9.84-0.45-9.85        c0.13-0.01,0.54,4.39,0.91,9.82C105.21,334.8,105.41,339.21,105.28,339.22z"></path>
					</g>
				</g>
			</g>
			<g>
				<g>
					<g>
						<path style="fill:#263238;" d="M86.17,319.13c0-0.06,1-0.09,2.6-0.08c1.61,0.01,3.82,0.06,6.27,0.14        c2.45,0.08,4.66,0.18,6.26,0.28c1.6,0.1,2.59,0.19,2.59,0.25c0,0.06-0.99,0.09-2.6,0.08c-1.61-0.01-3.82-0.06-6.27-0.14        c-2.45-0.08-4.66-0.18-6.27-0.28C87.15,319.28,86.16,319.19,86.17,319.13z"></path>
					</g>
				</g>
			</g>
		</g>
		<g>
			<g>
				<g>
					<path style="fill:#263238;" d="M124.55,374.28c-0.02,0-0.03-0.18-0.06-0.53c-0.02-0.4-0.04-0.9-0.07-1.53       c-0.06-1.32-0.07-3.24-0.02-5.62c0.04-2.37,0.2-5.19,0.48-8.32c0.3-3.12,0.74-6.55,1.37-10.11c0.64-3.56,1.42-6.93,2.21-9.96       c0.82-3.03,1.64-5.73,2.42-7.97c0.77-2.24,1.45-4.04,1.96-5.26c0.24-0.57,0.44-1.04,0.59-1.41c0.14-0.32,0.22-0.48,0.24-0.48       c0.01,0.01-0.04,0.18-0.15,0.51c-0.13,0.38-0.3,0.85-0.51,1.44c-0.46,1.24-1.09,3.05-1.82,5.3c-0.74,2.25-1.53,4.95-2.32,7.98       c-0.77,3.03-1.52,6.39-2.17,9.94c-0.62,3.55-1.07,6.96-1.4,10.07c-0.3,3.11-0.49,5.92-0.58,8.29c-0.09,2.36-0.13,4.28-0.13,5.6       c-0.01,0.62-0.01,1.13-0.02,1.53C124.57,374.09,124.56,374.27,124.55,374.28z"></path>
				</g>
			</g>
		</g>
		<g>
			<g>
				<g>
					<path style="fill:#263238;" d="M126.59,347.79c0.04,0.04-0.54,0.7-1.55,1.7c-1,1-2.43,2.35-4.06,3.77       c-1.63,1.43-3.15,2.66-4.27,3.53c-1.12,0.87-1.85,1.36-1.89,1.31c-0.04-0.05,0.61-0.64,1.68-1.57       c1.19-1.04,2.61-2.27,4.17-3.62c1.55-1.37,2.96-2.62,4.14-3.66C125.88,348.31,126.55,347.74,126.59,347.79z"></path>
				</g>
			</g>
		</g>
		<g>
			<g>
				<g>
					<path style="fill:#263238;" d="M138.88,357.68c-0.06,0.04-0.67-0.85-1.65-2.28c-1.06-1.55-2.38-3.47-3.84-5.6       c-1.49-2.11-2.83-4.01-3.92-5.54c-1.01-1.42-1.62-2.3-1.57-2.34c0.05-0.04,0.76,0.78,1.83,2.14c1.08,1.37,2.52,3.29,4.04,5.48       c1.52,2.18,2.82,4.2,3.73,5.69C138.42,356.71,138.94,357.65,138.88,357.68z"></path>
				</g>
			</g>
		</g>
		<g>
			<g>
				<g>
					<path style="fill:#263238;" d="M132.44,326.55c0.07,0.11-4.01,2.86-9.12,6.14c-5.11,3.28-9.3,5.85-9.37,5.75       c-0.07-0.11,4.01-2.86,9.12-6.14C128.18,329.02,132.38,326.45,132.44,326.55z"></path>
				</g>
			</g>
		</g>
		<g>
			<g>
				<g>
					<path style="fill:#263238;" d="M143.96,338.98c-0.09,0.09-2.85-2.46-6.17-5.71c-3.32-3.24-5.94-5.95-5.85-6.04       c0.09-0.09,2.85,2.46,6.17,5.71C141.43,336.18,144.04,338.88,143.96,338.98z"></path>
				</g>
			</g>
		</g>
		<g>
			<g>
				<g>
					<path style="fill:#3F9D03;" d="M146.85,338.73l3.5-0.29c2.49-0.21,4.9-0.94,7.08-2.17c1.07-0.61,2.16-1.2,3.3-1.66       c4.33-1.74,9.17-1.43,13.83-1.66c7.61-0.38,15.14-2.31,22-5.63c0.4-0.19,0.75-0.48,0.96-0.87c0.72-1.31-0.62-2.48-1.77-3.19       c-5.9-3.64-11.91-7.32-18.61-9.13c-6.7-1.81-14.29-1.5-20.01,2.43C150.43,321.19,147.98,330.67,146.85,338.73"></path>
				</g>
			</g>
			<g>
				<g>
					<g>
						<path style="fill:#263238;" d="M197.59,326.03c-0.01,0.01-0.21-0.08-0.59-0.28c-0.42-0.22-0.97-0.51-1.66-0.87        c-1.44-0.76-3.51-1.88-6.13-3.13c-2.62-1.24-5.8-2.65-9.5-3.66c-3.68-1.02-7.93-1.56-12.31-1c-4.36,0.57-8.38,2.27-11.22,4.82        c-2.86,2.54-4.61,5.6-5.84,8.21c-1.23,2.63-1.99,4.86-2.54,6.39c-0.26,0.73-0.47,1.32-0.62,1.77        c-0.15,0.4-0.23,0.61-0.25,0.61c-0.02,0,0.04-0.22,0.16-0.64c0.14-0.45,0.32-1.05,0.54-1.8c0.5-1.55,1.21-3.8,2.42-6.47        c1.21-2.64,2.94-5.77,5.86-8.39c2.9-2.63,7.01-4.38,11.44-4.96c4.45-0.57,8.77-0.01,12.48,1.05c3.73,1.05,6.91,2.49,9.53,3.78        c2.61,1.3,4.66,2.46,6.08,3.27c0.67,0.39,1.21,0.71,1.62,0.95C197.41,325.89,197.6,326.01,197.59,326.03z"></path>
					</g>
				</g>
			</g>
			<g>
				<g>
					<g>
						<path style="fill:#263238;" d="M189.18,330.55c-0.07,0.11-4.66-2.86-10.24-6.62c-5.58-3.76-10.05-6.9-9.98-7.01        c0.07-0.11,4.65,2.86,10.24,6.62C184.78,327.3,189.25,330.44,189.18,330.55z"></path>
					</g>
				</g>
			</g>
			<g>
				<g>
					<g>
						<path style="fill:#263238;" d="M184.78,316.48c0.02,0.12-1.57,0.54-3.58,0.72c-2.01,0.19-3.65,0.07-3.65-0.05        c0-0.13,1.62-0.23,3.61-0.41C183.14,316.55,184.75,316.35,184.78,316.48z"></path>
					</g>
				</g>
			</g>
			<g>
				<g>
					<g>
						<path style="fill:#263238;" d="M164.23,312.8c0.11,0.07-0.56,1.41-1.5,3.01c-0.94,1.6-1.79,2.84-1.9,2.77        c-0.11-0.07,0.56-1.41,1.5-3.01C163.26,313.97,164.12,312.73,164.23,312.8z"></path>
					</g>
				</g>
			</g>
			<g>
				<g>
					<g>
						<path style="fill:#263238;" d="M168.33,333.25c-0.03,0.05-0.88-0.39-2.21-1.2c-1.32-0.8-3.11-1.98-5.02-3.37        c-1.91-1.39-3.6-2.7-4.81-3.66c-1.21-0.96-1.94-1.58-1.9-1.63c0.04-0.05,0.84,0.47,2.1,1.37c1.37,1,3.04,2.21,4.88,3.55        c1.91,1.38,3.66,2.6,4.93,3.47C167.58,332.65,168.37,333.19,168.33,333.25z"></path>
					</g>
				</g>
			</g>
		</g>
		<g>
			<g>
				<g>
					<path style="fill:#3F9D03;" d="M152.01,353.62c-3.34-0.88-7.33,2.37-8.02,5.76c-0.69,3.39,0.58,6.85,2.07,9.97       c3.29,6.91,7.84,13.32,13.82,18.08c5.99,4.77,13.48,7.82,21.13,7.78c-1.41-6.56,0.37-13.42-0.41-20.09       c-0.69-5.82-3.4-11.38-7.57-15.5c-4.16-4.12-9.75-6.78-15.58-7.41C155.33,351.98,152.86,351.65,152.01,353.62"></path>
				</g>
			</g>
			<g>
				<g>
					<g>
						<path style="fill:#263238;" d="M181.02,395.21c-0.01,0.01-0.17-0.06-0.48-0.22c-0.3-0.16-0.74-0.43-1.25-0.84        c-1.05-0.8-2.25-2.33-3.3-4.41c-0.53-1.03-1.13-2.16-1.71-3.4c-0.56-1.25-1.17-2.58-1.8-3.98c-0.64-1.39-1.34-2.84-2.21-4.25        c-0.87-1.41-1.9-2.79-3.04-4.14c-2.29-2.69-4.74-5.01-6.87-7.24c-2.14-2.21-3.94-4.34-5.24-6.29        c-1.31-1.93-2.11-3.67-2.56-4.89c-0.22-0.62-0.37-1.1-0.45-1.43c-0.08-0.33-0.12-0.51-0.11-0.51        c0.04-0.01,0.23,0.68,0.72,1.88c0.5,1.19,1.33,2.88,2.66,4.77c1.32,1.9,3.13,3.99,5.28,6.17c2.14,2.2,4.61,4.52,6.92,7.23        c1.15,1.36,2.2,2.76,3.07,4.2c0.88,1.44,1.58,2.91,2.21,4.31c0.62,1.4,1.21,2.74,1.76,3.99c0.56,1.24,1.14,2.37,1.65,3.41        c1.01,2.09,2.13,3.6,3.12,4.43C180.39,394.85,181.05,395.17,181.02,395.21z"></path>
					</g>
				</g>
			</g>
			<g>
				<g>
					<g>
						<path style="fill:#263238;" d="M163.74,389.76c-0.06-0.01,0.04-0.87,0.31-2.25c0.26-1.38,0.69-3.27,1.27-5.32        c0.58-2.06,1.2-3.9,1.7-5.21c0.49-1.31,0.85-2.1,0.91-2.08c0.06,0.02-0.19,0.85-0.6,2.19c-0.41,1.33-0.98,3.18-1.56,5.23        c-0.58,2.05-1.05,3.92-1.4,5.27C164.02,388.93,163.8,389.77,163.74,389.76z"></path>
					</g>
				</g>
			</g>
			<g>
				<g>
					<g>
						<path style="fill:#263238;" d="M180.39,373.65c-0.02,0.06-0.91-0.16-2.35-0.54c-1.44-0.38-3.43-0.89-5.64-1.39        c-2.21-0.5-4.23-0.89-5.69-1.16c-1.46-0.28-2.37-0.45-2.36-0.52c0.01-0.06,0.93,0,2.41,0.2c1.48,0.19,3.52,0.53,5.74,1.03        c2.22,0.5,4.21,1.07,5.63,1.53C179.54,373.25,180.4,373.59,180.39,373.65z"></path>
					</g>
				</g>
			</g>
			<g>
				<g>
					<g>
						<path style="fill:#263238;" d="M151.33,378.33c-0.06-0.01,0.07-1.01,0.36-2.6c0.29-1.6,0.76-3.79,1.39-6.19        c0.63-2.4,1.29-4.54,1.81-6.08c0.52-1.54,0.9-2.47,0.96-2.45c0.06,0.02-0.2,0.99-0.64,2.55c-0.44,1.56-1.05,3.71-1.68,6.1        c-0.62,2.39-1.14,4.56-1.51,6.14C151.64,377.37,151.4,378.34,151.33,378.33z"></path>
					</g>
				</g>
			</g>
			<g>
				<g>
					<g>
						<path style="fill:#263238;" d="M172.72,359.61c-0.01,0.13-4.19-0.21-9.32-0.75c-5.13-0.54-9.28-1.09-9.27-1.22        c0.01-0.13,4.19,0.21,9.32,0.75C168.58,358.93,172.73,359.48,172.72,359.61z"></path>
					</g>
				</g>
			</g>
		</g>
		<g>
			<g>
				<g>
					<path style="fill:#455A64;" d="M169.66,410.21c0,0.13-14.67,0.23-32.76,0.23c-18.1,0-32.76-0.1-32.76-0.23       c0-0.13,14.66-0.23,32.76-0.23C154.99,409.98,169.66,410.08,169.66,410.21z"></path>
				</g>
			</g>
		</g>
		<g>
			<g>
				<g>
					<path style="fill:#455A64;" d="M159.46,429.08c0,0.13-9.88,0.23-22.07,0.23c-12.19,0-22.07-0.1-22.07-0.23       c0-0.13,9.88-0.23,22.07-0.23C149.57,428.85,159.46,428.95,159.46,429.08z"></path>
				</g>
			</g>
		</g>
		<g>
			<g>
				<g>
					<path style="fill:#455A64;" d="M159.84,431.78c0,0.13-9.88,0.23-22.07,0.23c-12.19,0-22.07-0.1-22.07-0.23       c0-0.13,9.88-0.23,22.07-0.23C149.96,431.55,159.84,431.65,159.84,431.78z"></path>
				</g>
			</g>
		</g>
		<g>
			<g>
				<g>
					<path style="fill:#455A64;" d="M159.84,426.86c0,0.13-10.22,0.23-22.83,0.23c-12.61,0-22.83-0.1-22.83-0.23       c0-0.13,10.22-0.23,22.83-0.23C149.62,426.63,159.84,426.73,159.84,426.86z"></path>
				</g>
			</g>
		</g>
	</g>
</g>
</svg>